%TF.GenerationSoftware,KiCad,Pcbnew,(5.1.6)-1*%
%TF.CreationDate,2020-05-29T23:07:58+02:00*%
%TF.ProjectId,HottTankuhr,486f7474-5461-46e6-9b75-68722e6b6963,rev?*%
%TF.SameCoordinates,Original*%
%TF.FileFunction,Paste,Top*%
%TF.FilePolarity,Positive*%
%FSLAX46Y46*%
G04 Gerber Fmt 4.6, Leading zero omitted, Abs format (unit mm)*
G04 Created by KiCad (PCBNEW (5.1.6)-1) date 2020-05-29 23:07:58*
%MOMM*%
%LPD*%
G01*
G04 APERTURE LIST*
%ADD10R,5.500000X3.500000*%
%ADD11R,2.700000X6.200000*%
%ADD12R,4.000000X1.000000*%
%ADD13R,0.900000X0.800000*%
%ADD14R,1.060000X0.650000*%
G04 APERTURE END LIST*
D10*
X160020000Y-86900000D03*
X160020000Y-90900000D03*
X139700000Y-86900000D03*
X139700000Y-90900000D03*
G36*
G01*
X162562250Y-106381000D02*
X162049750Y-106381000D01*
G75*
G02*
X161831000Y-106162250I0J218750D01*
G01*
X161831000Y-105724750D01*
G75*
G02*
X162049750Y-105506000I218750J0D01*
G01*
X162562250Y-105506000D01*
G75*
G02*
X162781000Y-105724750I0J-218750D01*
G01*
X162781000Y-106162250D01*
G75*
G02*
X162562250Y-106381000I-218750J0D01*
G01*
G37*
G36*
G01*
X162562250Y-104806000D02*
X162049750Y-104806000D01*
G75*
G02*
X161831000Y-104587250I0J218750D01*
G01*
X161831000Y-104149750D01*
G75*
G02*
X162049750Y-103931000I218750J0D01*
G01*
X162562250Y-103931000D01*
G75*
G02*
X162781000Y-104149750I0J-218750D01*
G01*
X162781000Y-104587250D01*
G75*
G02*
X162562250Y-104806000I-218750J0D01*
G01*
G37*
G36*
G01*
X145031750Y-105506000D02*
X145544250Y-105506000D01*
G75*
G02*
X145763000Y-105724750I0J-218750D01*
G01*
X145763000Y-106162250D01*
G75*
G02*
X145544250Y-106381000I-218750J0D01*
G01*
X145031750Y-106381000D01*
G75*
G02*
X144813000Y-106162250I0J218750D01*
G01*
X144813000Y-105724750D01*
G75*
G02*
X145031750Y-105506000I218750J0D01*
G01*
G37*
G36*
G01*
X145031750Y-103931000D02*
X145544250Y-103931000D01*
G75*
G02*
X145763000Y-104149750I0J-218750D01*
G01*
X145763000Y-104587250D01*
G75*
G02*
X145544250Y-104806000I-218750J0D01*
G01*
X145031750Y-104806000D01*
G75*
G02*
X144813000Y-104587250I0J218750D01*
G01*
X144813000Y-104149750D01*
G75*
G02*
X145031750Y-103931000I218750J0D01*
G01*
G37*
D11*
X154010000Y-92710000D03*
X145710000Y-92710000D03*
G36*
G01*
X151127750Y-105506000D02*
X151640250Y-105506000D01*
G75*
G02*
X151859000Y-105724750I0J-218750D01*
G01*
X151859000Y-106162250D01*
G75*
G02*
X151640250Y-106381000I-218750J0D01*
G01*
X151127750Y-106381000D01*
G75*
G02*
X150909000Y-106162250I0J218750D01*
G01*
X150909000Y-105724750D01*
G75*
G02*
X151127750Y-105506000I218750J0D01*
G01*
G37*
G36*
G01*
X151127750Y-103931000D02*
X151640250Y-103931000D01*
G75*
G02*
X151859000Y-104149750I0J-218750D01*
G01*
X151859000Y-104587250D01*
G75*
G02*
X151640250Y-104806000I-218750J0D01*
G01*
X151127750Y-104806000D01*
G75*
G02*
X150909000Y-104587250I0J218750D01*
G01*
X150909000Y-104149750D01*
G75*
G02*
X151127750Y-103931000I218750J0D01*
G01*
G37*
G36*
G01*
X147576250Y-104806000D02*
X147063750Y-104806000D01*
G75*
G02*
X146845000Y-104587250I0J218750D01*
G01*
X146845000Y-104149750D01*
G75*
G02*
X147063750Y-103931000I218750J0D01*
G01*
X147576250Y-103931000D01*
G75*
G02*
X147795000Y-104149750I0J-218750D01*
G01*
X147795000Y-104587250D01*
G75*
G02*
X147576250Y-104806000I-218750J0D01*
G01*
G37*
G36*
G01*
X147576250Y-106381000D02*
X147063750Y-106381000D01*
G75*
G02*
X146845000Y-106162250I0J218750D01*
G01*
X146845000Y-105724750D01*
G75*
G02*
X147063750Y-105506000I218750J0D01*
G01*
X147576250Y-105506000D01*
G75*
G02*
X147795000Y-105724750I0J-218750D01*
G01*
X147795000Y-106162250D01*
G75*
G02*
X147576250Y-106381000I-218750J0D01*
G01*
G37*
G36*
G01*
X153159750Y-105506000D02*
X153672250Y-105506000D01*
G75*
G02*
X153891000Y-105724750I0J-218750D01*
G01*
X153891000Y-106162250D01*
G75*
G02*
X153672250Y-106381000I-218750J0D01*
G01*
X153159750Y-106381000D01*
G75*
G02*
X152941000Y-106162250I0J218750D01*
G01*
X152941000Y-105724750D01*
G75*
G02*
X153159750Y-105506000I218750J0D01*
G01*
G37*
G36*
G01*
X153159750Y-103931000D02*
X153672250Y-103931000D01*
G75*
G02*
X153891000Y-104149750I0J-218750D01*
G01*
X153891000Y-104587250D01*
G75*
G02*
X153672250Y-104806000I-218750J0D01*
G01*
X153159750Y-104806000D01*
G75*
G02*
X152941000Y-104587250I0J218750D01*
G01*
X152941000Y-104149750D01*
G75*
G02*
X153159750Y-103931000I218750J0D01*
G01*
G37*
G36*
G01*
X149095750Y-105506000D02*
X149608250Y-105506000D01*
G75*
G02*
X149827000Y-105724750I0J-218750D01*
G01*
X149827000Y-106162250D01*
G75*
G02*
X149608250Y-106381000I-218750J0D01*
G01*
X149095750Y-106381000D01*
G75*
G02*
X148877000Y-106162250I0J218750D01*
G01*
X148877000Y-105724750D01*
G75*
G02*
X149095750Y-105506000I218750J0D01*
G01*
G37*
G36*
G01*
X149095750Y-103931000D02*
X149608250Y-103931000D01*
G75*
G02*
X149827000Y-104149750I0J-218750D01*
G01*
X149827000Y-104587250D01*
G75*
G02*
X149608250Y-104806000I-218750J0D01*
G01*
X149095750Y-104806000D01*
G75*
G02*
X148877000Y-104587250I0J218750D01*
G01*
X148877000Y-104149750D01*
G75*
G02*
X149095750Y-103931000I218750J0D01*
G01*
G37*
G36*
G01*
X149608250Y-101377000D02*
X149095750Y-101377000D01*
G75*
G02*
X148877000Y-101158250I0J218750D01*
G01*
X148877000Y-100720750D01*
G75*
G02*
X149095750Y-100502000I218750J0D01*
G01*
X149608250Y-100502000D01*
G75*
G02*
X149827000Y-100720750I0J-218750D01*
G01*
X149827000Y-101158250D01*
G75*
G02*
X149608250Y-101377000I-218750J0D01*
G01*
G37*
G36*
G01*
X149608250Y-102952000D02*
X149095750Y-102952000D01*
G75*
G02*
X148877000Y-102733250I0J218750D01*
G01*
X148877000Y-102295750D01*
G75*
G02*
X149095750Y-102077000I218750J0D01*
G01*
X149608250Y-102077000D01*
G75*
G02*
X149827000Y-102295750I0J-218750D01*
G01*
X149827000Y-102733250D01*
G75*
G02*
X149608250Y-102952000I-218750J0D01*
G01*
G37*
G36*
G01*
X147063750Y-102077000D02*
X147576250Y-102077000D01*
G75*
G02*
X147795000Y-102295750I0J-218750D01*
G01*
X147795000Y-102733250D01*
G75*
G02*
X147576250Y-102952000I-218750J0D01*
G01*
X147063750Y-102952000D01*
G75*
G02*
X146845000Y-102733250I0J218750D01*
G01*
X146845000Y-102295750D01*
G75*
G02*
X147063750Y-102077000I218750J0D01*
G01*
G37*
G36*
G01*
X147063750Y-100502000D02*
X147576250Y-100502000D01*
G75*
G02*
X147795000Y-100720750I0J-218750D01*
G01*
X147795000Y-101158250D01*
G75*
G02*
X147576250Y-101377000I-218750J0D01*
G01*
X147063750Y-101377000D01*
G75*
G02*
X146845000Y-101158250I0J218750D01*
G01*
X146845000Y-100720750D01*
G75*
G02*
X147063750Y-100502000I218750J0D01*
G01*
G37*
G36*
G01*
X152242000Y-99316250D02*
X152242000Y-98803750D01*
G75*
G02*
X152460750Y-98585000I218750J0D01*
G01*
X152898250Y-98585000D01*
G75*
G02*
X153117000Y-98803750I0J-218750D01*
G01*
X153117000Y-99316250D01*
G75*
G02*
X152898250Y-99535000I-218750J0D01*
G01*
X152460750Y-99535000D01*
G75*
G02*
X152242000Y-99316250I0J218750D01*
G01*
G37*
G36*
G01*
X150667000Y-99316250D02*
X150667000Y-98803750D01*
G75*
G02*
X150885750Y-98585000I218750J0D01*
G01*
X151323250Y-98585000D01*
G75*
G02*
X151542000Y-98803750I0J-218750D01*
G01*
X151542000Y-99316250D01*
G75*
G02*
X151323250Y-99535000I-218750J0D01*
G01*
X150885750Y-99535000D01*
G75*
G02*
X150667000Y-99316250I0J218750D01*
G01*
G37*
G36*
G01*
X155704250Y-104806000D02*
X155191750Y-104806000D01*
G75*
G02*
X154973000Y-104587250I0J218750D01*
G01*
X154973000Y-104149750D01*
G75*
G02*
X155191750Y-103931000I218750J0D01*
G01*
X155704250Y-103931000D01*
G75*
G02*
X155923000Y-104149750I0J-218750D01*
G01*
X155923000Y-104587250D01*
G75*
G02*
X155704250Y-104806000I-218750J0D01*
G01*
G37*
G36*
G01*
X155704250Y-106381000D02*
X155191750Y-106381000D01*
G75*
G02*
X154973000Y-106162250I0J218750D01*
G01*
X154973000Y-105724750D01*
G75*
G02*
X155191750Y-105506000I218750J0D01*
G01*
X155704250Y-105506000D01*
G75*
G02*
X155923000Y-105724750I0J-218750D01*
G01*
X155923000Y-106162250D01*
G75*
G02*
X155704250Y-106381000I-218750J0D01*
G01*
G37*
G36*
G01*
X151640250Y-101377000D02*
X151127750Y-101377000D01*
G75*
G02*
X150909000Y-101158250I0J218750D01*
G01*
X150909000Y-100720750D01*
G75*
G02*
X151127750Y-100502000I218750J0D01*
G01*
X151640250Y-100502000D01*
G75*
G02*
X151859000Y-100720750I0J-218750D01*
G01*
X151859000Y-101158250D01*
G75*
G02*
X151640250Y-101377000I-218750J0D01*
G01*
G37*
G36*
G01*
X151640250Y-102952000D02*
X151127750Y-102952000D01*
G75*
G02*
X150909000Y-102733250I0J218750D01*
G01*
X150909000Y-102295750D01*
G75*
G02*
X151127750Y-102077000I218750J0D01*
G01*
X151640250Y-102077000D01*
G75*
G02*
X151859000Y-102295750I0J-218750D01*
G01*
X151859000Y-102733250D01*
G75*
G02*
X151640250Y-102952000I-218750J0D01*
G01*
G37*
G36*
G01*
X152242000Y-97284250D02*
X152242000Y-96771750D01*
G75*
G02*
X152460750Y-96553000I218750J0D01*
G01*
X152898250Y-96553000D01*
G75*
G02*
X153117000Y-96771750I0J-218750D01*
G01*
X153117000Y-97284250D01*
G75*
G02*
X152898250Y-97503000I-218750J0D01*
G01*
X152460750Y-97503000D01*
G75*
G02*
X152242000Y-97284250I0J218750D01*
G01*
G37*
G36*
G01*
X150667000Y-97284250D02*
X150667000Y-96771750D01*
G75*
G02*
X150885750Y-96553000I218750J0D01*
G01*
X151323250Y-96553000D01*
G75*
G02*
X151542000Y-96771750I0J-218750D01*
G01*
X151542000Y-97284250D01*
G75*
G02*
X151323250Y-97503000I-218750J0D01*
G01*
X150885750Y-97503000D01*
G75*
G02*
X150667000Y-97284250I0J218750D01*
G01*
G37*
G36*
G01*
X157482250Y-104806000D02*
X156969750Y-104806000D01*
G75*
G02*
X156751000Y-104587250I0J218750D01*
G01*
X156751000Y-104149750D01*
G75*
G02*
X156969750Y-103931000I218750J0D01*
G01*
X157482250Y-103931000D01*
G75*
G02*
X157701000Y-104149750I0J-218750D01*
G01*
X157701000Y-104587250D01*
G75*
G02*
X157482250Y-104806000I-218750J0D01*
G01*
G37*
G36*
G01*
X157482250Y-106381000D02*
X156969750Y-106381000D01*
G75*
G02*
X156751000Y-106162250I0J218750D01*
G01*
X156751000Y-105724750D01*
G75*
G02*
X156969750Y-105506000I218750J0D01*
G01*
X157482250Y-105506000D01*
G75*
G02*
X157701000Y-105724750I0J-218750D01*
G01*
X157701000Y-106162250D01*
G75*
G02*
X157482250Y-106381000I-218750J0D01*
G01*
G37*
G36*
G01*
X145031750Y-96819000D02*
X145544250Y-96819000D01*
G75*
G02*
X145763000Y-97037750I0J-218750D01*
G01*
X145763000Y-97475250D01*
G75*
G02*
X145544250Y-97694000I-218750J0D01*
G01*
X145031750Y-97694000D01*
G75*
G02*
X144813000Y-97475250I0J218750D01*
G01*
X144813000Y-97037750D01*
G75*
G02*
X145031750Y-96819000I218750J0D01*
G01*
G37*
G36*
G01*
X145031750Y-98394000D02*
X145544250Y-98394000D01*
G75*
G02*
X145763000Y-98612750I0J-218750D01*
G01*
X145763000Y-99050250D01*
G75*
G02*
X145544250Y-99269000I-218750J0D01*
G01*
X145031750Y-99269000D01*
G75*
G02*
X144813000Y-99050250I0J218750D01*
G01*
X144813000Y-98612750D01*
G75*
G02*
X145031750Y-98394000I218750J0D01*
G01*
G37*
D12*
X161036000Y-98298000D03*
X161036000Y-99568000D03*
X161036000Y-100838000D03*
D13*
X158766000Y-104460000D03*
X158766000Y-106360000D03*
X160766000Y-105410000D03*
G36*
G01*
X144166000Y-105768000D02*
X144166000Y-106068000D01*
G75*
G02*
X144016000Y-106218000I-150000J0D01*
G01*
X142366000Y-106218000D01*
G75*
G02*
X142216000Y-106068000I0J150000D01*
G01*
X142216000Y-105768000D01*
G75*
G02*
X142366000Y-105618000I150000J0D01*
G01*
X144016000Y-105618000D01*
G75*
G02*
X144166000Y-105768000I0J-150000D01*
G01*
G37*
G36*
G01*
X144166000Y-104498000D02*
X144166000Y-104798000D01*
G75*
G02*
X144016000Y-104948000I-150000J0D01*
G01*
X142366000Y-104948000D01*
G75*
G02*
X142216000Y-104798000I0J150000D01*
G01*
X142216000Y-104498000D01*
G75*
G02*
X142366000Y-104348000I150000J0D01*
G01*
X144016000Y-104348000D01*
G75*
G02*
X144166000Y-104498000I0J-150000D01*
G01*
G37*
G36*
G01*
X144166000Y-103228000D02*
X144166000Y-103528000D01*
G75*
G02*
X144016000Y-103678000I-150000J0D01*
G01*
X142366000Y-103678000D01*
G75*
G02*
X142216000Y-103528000I0J150000D01*
G01*
X142216000Y-103228000D01*
G75*
G02*
X142366000Y-103078000I150000J0D01*
G01*
X144016000Y-103078000D01*
G75*
G02*
X144166000Y-103228000I0J-150000D01*
G01*
G37*
G36*
G01*
X144166000Y-101958000D02*
X144166000Y-102258000D01*
G75*
G02*
X144016000Y-102408000I-150000J0D01*
G01*
X142366000Y-102408000D01*
G75*
G02*
X142216000Y-102258000I0J150000D01*
G01*
X142216000Y-101958000D01*
G75*
G02*
X142366000Y-101808000I150000J0D01*
G01*
X144016000Y-101808000D01*
G75*
G02*
X144166000Y-101958000I0J-150000D01*
G01*
G37*
G36*
G01*
X144166000Y-100688000D02*
X144166000Y-100988000D01*
G75*
G02*
X144016000Y-101138000I-150000J0D01*
G01*
X142366000Y-101138000D01*
G75*
G02*
X142216000Y-100988000I0J150000D01*
G01*
X142216000Y-100688000D01*
G75*
G02*
X142366000Y-100538000I150000J0D01*
G01*
X144016000Y-100538000D01*
G75*
G02*
X144166000Y-100688000I0J-150000D01*
G01*
G37*
G36*
G01*
X144166000Y-99418000D02*
X144166000Y-99718000D01*
G75*
G02*
X144016000Y-99868000I-150000J0D01*
G01*
X142366000Y-99868000D01*
G75*
G02*
X142216000Y-99718000I0J150000D01*
G01*
X142216000Y-99418000D01*
G75*
G02*
X142366000Y-99268000I150000J0D01*
G01*
X144016000Y-99268000D01*
G75*
G02*
X144166000Y-99418000I0J-150000D01*
G01*
G37*
G36*
G01*
X144166000Y-98148000D02*
X144166000Y-98448000D01*
G75*
G02*
X144016000Y-98598000I-150000J0D01*
G01*
X142366000Y-98598000D01*
G75*
G02*
X142216000Y-98448000I0J150000D01*
G01*
X142216000Y-98148000D01*
G75*
G02*
X142366000Y-97998000I150000J0D01*
G01*
X144016000Y-97998000D01*
G75*
G02*
X144166000Y-98148000I0J-150000D01*
G01*
G37*
G36*
G01*
X139216000Y-98148000D02*
X139216000Y-98448000D01*
G75*
G02*
X139066000Y-98598000I-150000J0D01*
G01*
X137416000Y-98598000D01*
G75*
G02*
X137266000Y-98448000I0J150000D01*
G01*
X137266000Y-98148000D01*
G75*
G02*
X137416000Y-97998000I150000J0D01*
G01*
X139066000Y-97998000D01*
G75*
G02*
X139216000Y-98148000I0J-150000D01*
G01*
G37*
G36*
G01*
X139216000Y-99418000D02*
X139216000Y-99718000D01*
G75*
G02*
X139066000Y-99868000I-150000J0D01*
G01*
X137416000Y-99868000D01*
G75*
G02*
X137266000Y-99718000I0J150000D01*
G01*
X137266000Y-99418000D01*
G75*
G02*
X137416000Y-99268000I150000J0D01*
G01*
X139066000Y-99268000D01*
G75*
G02*
X139216000Y-99418000I0J-150000D01*
G01*
G37*
G36*
G01*
X139216000Y-100688000D02*
X139216000Y-100988000D01*
G75*
G02*
X139066000Y-101138000I-150000J0D01*
G01*
X137416000Y-101138000D01*
G75*
G02*
X137266000Y-100988000I0J150000D01*
G01*
X137266000Y-100688000D01*
G75*
G02*
X137416000Y-100538000I150000J0D01*
G01*
X139066000Y-100538000D01*
G75*
G02*
X139216000Y-100688000I0J-150000D01*
G01*
G37*
G36*
G01*
X139216000Y-101958000D02*
X139216000Y-102258000D01*
G75*
G02*
X139066000Y-102408000I-150000J0D01*
G01*
X137416000Y-102408000D01*
G75*
G02*
X137266000Y-102258000I0J150000D01*
G01*
X137266000Y-101958000D01*
G75*
G02*
X137416000Y-101808000I150000J0D01*
G01*
X139066000Y-101808000D01*
G75*
G02*
X139216000Y-101958000I0J-150000D01*
G01*
G37*
G36*
G01*
X139216000Y-103228000D02*
X139216000Y-103528000D01*
G75*
G02*
X139066000Y-103678000I-150000J0D01*
G01*
X137416000Y-103678000D01*
G75*
G02*
X137266000Y-103528000I0J150000D01*
G01*
X137266000Y-103228000D01*
G75*
G02*
X137416000Y-103078000I150000J0D01*
G01*
X139066000Y-103078000D01*
G75*
G02*
X139216000Y-103228000I0J-150000D01*
G01*
G37*
G36*
G01*
X139216000Y-104498000D02*
X139216000Y-104798000D01*
G75*
G02*
X139066000Y-104948000I-150000J0D01*
G01*
X137416000Y-104948000D01*
G75*
G02*
X137266000Y-104798000I0J150000D01*
G01*
X137266000Y-104498000D01*
G75*
G02*
X137416000Y-104348000I150000J0D01*
G01*
X139066000Y-104348000D01*
G75*
G02*
X139216000Y-104498000I0J-150000D01*
G01*
G37*
G36*
G01*
X139216000Y-105768000D02*
X139216000Y-106068000D01*
G75*
G02*
X139066000Y-106218000I-150000J0D01*
G01*
X137416000Y-106218000D01*
G75*
G02*
X137266000Y-106068000I0J150000D01*
G01*
X137266000Y-105768000D01*
G75*
G02*
X137416000Y-105618000I150000J0D01*
G01*
X139066000Y-105618000D01*
G75*
G02*
X139216000Y-105768000I0J-150000D01*
G01*
G37*
D14*
X149436000Y-98994000D03*
X149436000Y-98044000D03*
X149436000Y-97094000D03*
X147236000Y-97094000D03*
X147236000Y-98994000D03*
M02*
