%TF.GenerationSoftware,KiCad,Pcbnew,(5.1.6)-1*%
%TF.CreationDate,2020-05-29T23:07:58+02:00*%
%TF.ProjectId,HottTankuhr,486f7474-5461-46e6-9b75-68722e6b6963,rev?*%
%TF.SameCoordinates,Original*%
%TF.FileFunction,Soldermask,Top*%
%TF.FilePolarity,Negative*%
%FSLAX46Y46*%
G04 Gerber Fmt 4.6, Leading zero omitted, Abs format (unit mm)*
G04 Created by KiCad (PCBNEW (5.1.6)-1) date 2020-05-29 23:07:58*
%MOMM*%
%LPD*%
G01*
G04 APERTURE LIST*
%ADD10C,0.100000*%
%ADD11R,5.600000X3.600000*%
%ADD12R,2.800000X6.300000*%
%ADD13R,4.100000X1.100000*%
%ADD14R,1.000000X0.900000*%
%ADD15R,1.160000X0.750000*%
G04 APERTURE END LIST*
D10*
G36*
X157988000Y-85852000D02*
G01*
X142240000Y-85852000D01*
X142240000Y-83312000D01*
X157988000Y-83312000D01*
X157988000Y-85852000D01*
G37*
X157988000Y-85852000D02*
X142240000Y-85852000D01*
X142240000Y-83312000D01*
X157988000Y-83312000D01*
X157988000Y-85852000D01*
D11*
X160020000Y-82900000D03*
X160020000Y-86900000D03*
X160020000Y-90900000D03*
X160020000Y-94900000D03*
X139700000Y-82900000D03*
X139700000Y-86900000D03*
X139700000Y-90900000D03*
X139700000Y-94900000D03*
G36*
G01*
X162587250Y-106431000D02*
X162024750Y-106431000D01*
G75*
G02*
X161781000Y-106187250I0J243750D01*
G01*
X161781000Y-105699750D01*
G75*
G02*
X162024750Y-105456000I243750J0D01*
G01*
X162587250Y-105456000D01*
G75*
G02*
X162831000Y-105699750I0J-243750D01*
G01*
X162831000Y-106187250D01*
G75*
G02*
X162587250Y-106431000I-243750J0D01*
G01*
G37*
G36*
G01*
X162587250Y-104856000D02*
X162024750Y-104856000D01*
G75*
G02*
X161781000Y-104612250I0J243750D01*
G01*
X161781000Y-104124750D01*
G75*
G02*
X162024750Y-103881000I243750J0D01*
G01*
X162587250Y-103881000D01*
G75*
G02*
X162831000Y-104124750I0J-243750D01*
G01*
X162831000Y-104612250D01*
G75*
G02*
X162587250Y-104856000I-243750J0D01*
G01*
G37*
G36*
G01*
X145006750Y-105456000D02*
X145569250Y-105456000D01*
G75*
G02*
X145813000Y-105699750I0J-243750D01*
G01*
X145813000Y-106187250D01*
G75*
G02*
X145569250Y-106431000I-243750J0D01*
G01*
X145006750Y-106431000D01*
G75*
G02*
X144763000Y-106187250I0J243750D01*
G01*
X144763000Y-105699750D01*
G75*
G02*
X145006750Y-105456000I243750J0D01*
G01*
G37*
G36*
G01*
X145006750Y-103881000D02*
X145569250Y-103881000D01*
G75*
G02*
X145813000Y-104124750I0J-243750D01*
G01*
X145813000Y-104612250D01*
G75*
G02*
X145569250Y-104856000I-243750J0D01*
G01*
X145006750Y-104856000D01*
G75*
G02*
X144763000Y-104612250I0J243750D01*
G01*
X144763000Y-104124750D01*
G75*
G02*
X145006750Y-103881000I243750J0D01*
G01*
G37*
D12*
X154010000Y-92710000D03*
X145710000Y-92710000D03*
G36*
G01*
X151102750Y-105456000D02*
X151665250Y-105456000D01*
G75*
G02*
X151909000Y-105699750I0J-243750D01*
G01*
X151909000Y-106187250D01*
G75*
G02*
X151665250Y-106431000I-243750J0D01*
G01*
X151102750Y-106431000D01*
G75*
G02*
X150859000Y-106187250I0J243750D01*
G01*
X150859000Y-105699750D01*
G75*
G02*
X151102750Y-105456000I243750J0D01*
G01*
G37*
G36*
G01*
X151102750Y-103881000D02*
X151665250Y-103881000D01*
G75*
G02*
X151909000Y-104124750I0J-243750D01*
G01*
X151909000Y-104612250D01*
G75*
G02*
X151665250Y-104856000I-243750J0D01*
G01*
X151102750Y-104856000D01*
G75*
G02*
X150859000Y-104612250I0J243750D01*
G01*
X150859000Y-104124750D01*
G75*
G02*
X151102750Y-103881000I243750J0D01*
G01*
G37*
G36*
G01*
X147601250Y-104856000D02*
X147038750Y-104856000D01*
G75*
G02*
X146795000Y-104612250I0J243750D01*
G01*
X146795000Y-104124750D01*
G75*
G02*
X147038750Y-103881000I243750J0D01*
G01*
X147601250Y-103881000D01*
G75*
G02*
X147845000Y-104124750I0J-243750D01*
G01*
X147845000Y-104612250D01*
G75*
G02*
X147601250Y-104856000I-243750J0D01*
G01*
G37*
G36*
G01*
X147601250Y-106431000D02*
X147038750Y-106431000D01*
G75*
G02*
X146795000Y-106187250I0J243750D01*
G01*
X146795000Y-105699750D01*
G75*
G02*
X147038750Y-105456000I243750J0D01*
G01*
X147601250Y-105456000D01*
G75*
G02*
X147845000Y-105699750I0J-243750D01*
G01*
X147845000Y-106187250D01*
G75*
G02*
X147601250Y-106431000I-243750J0D01*
G01*
G37*
G36*
G01*
X153134750Y-105456000D02*
X153697250Y-105456000D01*
G75*
G02*
X153941000Y-105699750I0J-243750D01*
G01*
X153941000Y-106187250D01*
G75*
G02*
X153697250Y-106431000I-243750J0D01*
G01*
X153134750Y-106431000D01*
G75*
G02*
X152891000Y-106187250I0J243750D01*
G01*
X152891000Y-105699750D01*
G75*
G02*
X153134750Y-105456000I243750J0D01*
G01*
G37*
G36*
G01*
X153134750Y-103881000D02*
X153697250Y-103881000D01*
G75*
G02*
X153941000Y-104124750I0J-243750D01*
G01*
X153941000Y-104612250D01*
G75*
G02*
X153697250Y-104856000I-243750J0D01*
G01*
X153134750Y-104856000D01*
G75*
G02*
X152891000Y-104612250I0J243750D01*
G01*
X152891000Y-104124750D01*
G75*
G02*
X153134750Y-103881000I243750J0D01*
G01*
G37*
G36*
G01*
X149070750Y-105456000D02*
X149633250Y-105456000D01*
G75*
G02*
X149877000Y-105699750I0J-243750D01*
G01*
X149877000Y-106187250D01*
G75*
G02*
X149633250Y-106431000I-243750J0D01*
G01*
X149070750Y-106431000D01*
G75*
G02*
X148827000Y-106187250I0J243750D01*
G01*
X148827000Y-105699750D01*
G75*
G02*
X149070750Y-105456000I243750J0D01*
G01*
G37*
G36*
G01*
X149070750Y-103881000D02*
X149633250Y-103881000D01*
G75*
G02*
X149877000Y-104124750I0J-243750D01*
G01*
X149877000Y-104612250D01*
G75*
G02*
X149633250Y-104856000I-243750J0D01*
G01*
X149070750Y-104856000D01*
G75*
G02*
X148827000Y-104612250I0J243750D01*
G01*
X148827000Y-104124750D01*
G75*
G02*
X149070750Y-103881000I243750J0D01*
G01*
G37*
G36*
G01*
X149633250Y-101427000D02*
X149070750Y-101427000D01*
G75*
G02*
X148827000Y-101183250I0J243750D01*
G01*
X148827000Y-100695750D01*
G75*
G02*
X149070750Y-100452000I243750J0D01*
G01*
X149633250Y-100452000D01*
G75*
G02*
X149877000Y-100695750I0J-243750D01*
G01*
X149877000Y-101183250D01*
G75*
G02*
X149633250Y-101427000I-243750J0D01*
G01*
G37*
G36*
G01*
X149633250Y-103002000D02*
X149070750Y-103002000D01*
G75*
G02*
X148827000Y-102758250I0J243750D01*
G01*
X148827000Y-102270750D01*
G75*
G02*
X149070750Y-102027000I243750J0D01*
G01*
X149633250Y-102027000D01*
G75*
G02*
X149877000Y-102270750I0J-243750D01*
G01*
X149877000Y-102758250D01*
G75*
G02*
X149633250Y-103002000I-243750J0D01*
G01*
G37*
G36*
G01*
X147038750Y-102027000D02*
X147601250Y-102027000D01*
G75*
G02*
X147845000Y-102270750I0J-243750D01*
G01*
X147845000Y-102758250D01*
G75*
G02*
X147601250Y-103002000I-243750J0D01*
G01*
X147038750Y-103002000D01*
G75*
G02*
X146795000Y-102758250I0J243750D01*
G01*
X146795000Y-102270750D01*
G75*
G02*
X147038750Y-102027000I243750J0D01*
G01*
G37*
G36*
G01*
X147038750Y-100452000D02*
X147601250Y-100452000D01*
G75*
G02*
X147845000Y-100695750I0J-243750D01*
G01*
X147845000Y-101183250D01*
G75*
G02*
X147601250Y-101427000I-243750J0D01*
G01*
X147038750Y-101427000D01*
G75*
G02*
X146795000Y-101183250I0J243750D01*
G01*
X146795000Y-100695750D01*
G75*
G02*
X147038750Y-100452000I243750J0D01*
G01*
G37*
G36*
G01*
X152192000Y-99341250D02*
X152192000Y-98778750D01*
G75*
G02*
X152435750Y-98535000I243750J0D01*
G01*
X152923250Y-98535000D01*
G75*
G02*
X153167000Y-98778750I0J-243750D01*
G01*
X153167000Y-99341250D01*
G75*
G02*
X152923250Y-99585000I-243750J0D01*
G01*
X152435750Y-99585000D01*
G75*
G02*
X152192000Y-99341250I0J243750D01*
G01*
G37*
G36*
G01*
X150617000Y-99341250D02*
X150617000Y-98778750D01*
G75*
G02*
X150860750Y-98535000I243750J0D01*
G01*
X151348250Y-98535000D01*
G75*
G02*
X151592000Y-98778750I0J-243750D01*
G01*
X151592000Y-99341250D01*
G75*
G02*
X151348250Y-99585000I-243750J0D01*
G01*
X150860750Y-99585000D01*
G75*
G02*
X150617000Y-99341250I0J243750D01*
G01*
G37*
G36*
G01*
X155729250Y-104856000D02*
X155166750Y-104856000D01*
G75*
G02*
X154923000Y-104612250I0J243750D01*
G01*
X154923000Y-104124750D01*
G75*
G02*
X155166750Y-103881000I243750J0D01*
G01*
X155729250Y-103881000D01*
G75*
G02*
X155973000Y-104124750I0J-243750D01*
G01*
X155973000Y-104612250D01*
G75*
G02*
X155729250Y-104856000I-243750J0D01*
G01*
G37*
G36*
G01*
X155729250Y-106431000D02*
X155166750Y-106431000D01*
G75*
G02*
X154923000Y-106187250I0J243750D01*
G01*
X154923000Y-105699750D01*
G75*
G02*
X155166750Y-105456000I243750J0D01*
G01*
X155729250Y-105456000D01*
G75*
G02*
X155973000Y-105699750I0J-243750D01*
G01*
X155973000Y-106187250D01*
G75*
G02*
X155729250Y-106431000I-243750J0D01*
G01*
G37*
G36*
G01*
X151665250Y-101427000D02*
X151102750Y-101427000D01*
G75*
G02*
X150859000Y-101183250I0J243750D01*
G01*
X150859000Y-100695750D01*
G75*
G02*
X151102750Y-100452000I243750J0D01*
G01*
X151665250Y-100452000D01*
G75*
G02*
X151909000Y-100695750I0J-243750D01*
G01*
X151909000Y-101183250D01*
G75*
G02*
X151665250Y-101427000I-243750J0D01*
G01*
G37*
G36*
G01*
X151665250Y-103002000D02*
X151102750Y-103002000D01*
G75*
G02*
X150859000Y-102758250I0J243750D01*
G01*
X150859000Y-102270750D01*
G75*
G02*
X151102750Y-102027000I243750J0D01*
G01*
X151665250Y-102027000D01*
G75*
G02*
X151909000Y-102270750I0J-243750D01*
G01*
X151909000Y-102758250D01*
G75*
G02*
X151665250Y-103002000I-243750J0D01*
G01*
G37*
G36*
G01*
X152192000Y-97309250D02*
X152192000Y-96746750D01*
G75*
G02*
X152435750Y-96503000I243750J0D01*
G01*
X152923250Y-96503000D01*
G75*
G02*
X153167000Y-96746750I0J-243750D01*
G01*
X153167000Y-97309250D01*
G75*
G02*
X152923250Y-97553000I-243750J0D01*
G01*
X152435750Y-97553000D01*
G75*
G02*
X152192000Y-97309250I0J243750D01*
G01*
G37*
G36*
G01*
X150617000Y-97309250D02*
X150617000Y-96746750D01*
G75*
G02*
X150860750Y-96503000I243750J0D01*
G01*
X151348250Y-96503000D01*
G75*
G02*
X151592000Y-96746750I0J-243750D01*
G01*
X151592000Y-97309250D01*
G75*
G02*
X151348250Y-97553000I-243750J0D01*
G01*
X150860750Y-97553000D01*
G75*
G02*
X150617000Y-97309250I0J243750D01*
G01*
G37*
G36*
G01*
X157507250Y-104856000D02*
X156944750Y-104856000D01*
G75*
G02*
X156701000Y-104612250I0J243750D01*
G01*
X156701000Y-104124750D01*
G75*
G02*
X156944750Y-103881000I243750J0D01*
G01*
X157507250Y-103881000D01*
G75*
G02*
X157751000Y-104124750I0J-243750D01*
G01*
X157751000Y-104612250D01*
G75*
G02*
X157507250Y-104856000I-243750J0D01*
G01*
G37*
G36*
G01*
X157507250Y-106431000D02*
X156944750Y-106431000D01*
G75*
G02*
X156701000Y-106187250I0J243750D01*
G01*
X156701000Y-105699750D01*
G75*
G02*
X156944750Y-105456000I243750J0D01*
G01*
X157507250Y-105456000D01*
G75*
G02*
X157751000Y-105699750I0J-243750D01*
G01*
X157751000Y-106187250D01*
G75*
G02*
X157507250Y-106431000I-243750J0D01*
G01*
G37*
G36*
G01*
X145006750Y-96769000D02*
X145569250Y-96769000D01*
G75*
G02*
X145813000Y-97012750I0J-243750D01*
G01*
X145813000Y-97500250D01*
G75*
G02*
X145569250Y-97744000I-243750J0D01*
G01*
X145006750Y-97744000D01*
G75*
G02*
X144763000Y-97500250I0J243750D01*
G01*
X144763000Y-97012750D01*
G75*
G02*
X145006750Y-96769000I243750J0D01*
G01*
G37*
G36*
G01*
X145006750Y-98344000D02*
X145569250Y-98344000D01*
G75*
G02*
X145813000Y-98587750I0J-243750D01*
G01*
X145813000Y-99075250D01*
G75*
G02*
X145569250Y-99319000I-243750J0D01*
G01*
X145006750Y-99319000D01*
G75*
G02*
X144763000Y-99075250I0J243750D01*
G01*
X144763000Y-98587750D01*
G75*
G02*
X145006750Y-98344000I243750J0D01*
G01*
G37*
D13*
X161036000Y-98298000D03*
X161036000Y-99568000D03*
X161036000Y-100838000D03*
D14*
X158766000Y-104460000D03*
X158766000Y-106360000D03*
X160766000Y-105410000D03*
G36*
G01*
X144216000Y-105743000D02*
X144216000Y-106093000D01*
G75*
G02*
X144041000Y-106268000I-175000J0D01*
G01*
X142341000Y-106268000D01*
G75*
G02*
X142166000Y-106093000I0J175000D01*
G01*
X142166000Y-105743000D01*
G75*
G02*
X142341000Y-105568000I175000J0D01*
G01*
X144041000Y-105568000D01*
G75*
G02*
X144216000Y-105743000I0J-175000D01*
G01*
G37*
G36*
G01*
X144216000Y-104473000D02*
X144216000Y-104823000D01*
G75*
G02*
X144041000Y-104998000I-175000J0D01*
G01*
X142341000Y-104998000D01*
G75*
G02*
X142166000Y-104823000I0J175000D01*
G01*
X142166000Y-104473000D01*
G75*
G02*
X142341000Y-104298000I175000J0D01*
G01*
X144041000Y-104298000D01*
G75*
G02*
X144216000Y-104473000I0J-175000D01*
G01*
G37*
G36*
G01*
X144216000Y-103203000D02*
X144216000Y-103553000D01*
G75*
G02*
X144041000Y-103728000I-175000J0D01*
G01*
X142341000Y-103728000D01*
G75*
G02*
X142166000Y-103553000I0J175000D01*
G01*
X142166000Y-103203000D01*
G75*
G02*
X142341000Y-103028000I175000J0D01*
G01*
X144041000Y-103028000D01*
G75*
G02*
X144216000Y-103203000I0J-175000D01*
G01*
G37*
G36*
G01*
X144216000Y-101933000D02*
X144216000Y-102283000D01*
G75*
G02*
X144041000Y-102458000I-175000J0D01*
G01*
X142341000Y-102458000D01*
G75*
G02*
X142166000Y-102283000I0J175000D01*
G01*
X142166000Y-101933000D01*
G75*
G02*
X142341000Y-101758000I175000J0D01*
G01*
X144041000Y-101758000D01*
G75*
G02*
X144216000Y-101933000I0J-175000D01*
G01*
G37*
G36*
G01*
X144216000Y-100663000D02*
X144216000Y-101013000D01*
G75*
G02*
X144041000Y-101188000I-175000J0D01*
G01*
X142341000Y-101188000D01*
G75*
G02*
X142166000Y-101013000I0J175000D01*
G01*
X142166000Y-100663000D01*
G75*
G02*
X142341000Y-100488000I175000J0D01*
G01*
X144041000Y-100488000D01*
G75*
G02*
X144216000Y-100663000I0J-175000D01*
G01*
G37*
G36*
G01*
X144216000Y-99393000D02*
X144216000Y-99743000D01*
G75*
G02*
X144041000Y-99918000I-175000J0D01*
G01*
X142341000Y-99918000D01*
G75*
G02*
X142166000Y-99743000I0J175000D01*
G01*
X142166000Y-99393000D01*
G75*
G02*
X142341000Y-99218000I175000J0D01*
G01*
X144041000Y-99218000D01*
G75*
G02*
X144216000Y-99393000I0J-175000D01*
G01*
G37*
G36*
G01*
X144216000Y-98123000D02*
X144216000Y-98473000D01*
G75*
G02*
X144041000Y-98648000I-175000J0D01*
G01*
X142341000Y-98648000D01*
G75*
G02*
X142166000Y-98473000I0J175000D01*
G01*
X142166000Y-98123000D01*
G75*
G02*
X142341000Y-97948000I175000J0D01*
G01*
X144041000Y-97948000D01*
G75*
G02*
X144216000Y-98123000I0J-175000D01*
G01*
G37*
G36*
G01*
X139266000Y-98123000D02*
X139266000Y-98473000D01*
G75*
G02*
X139091000Y-98648000I-175000J0D01*
G01*
X137391000Y-98648000D01*
G75*
G02*
X137216000Y-98473000I0J175000D01*
G01*
X137216000Y-98123000D01*
G75*
G02*
X137391000Y-97948000I175000J0D01*
G01*
X139091000Y-97948000D01*
G75*
G02*
X139266000Y-98123000I0J-175000D01*
G01*
G37*
G36*
G01*
X139266000Y-99393000D02*
X139266000Y-99743000D01*
G75*
G02*
X139091000Y-99918000I-175000J0D01*
G01*
X137391000Y-99918000D01*
G75*
G02*
X137216000Y-99743000I0J175000D01*
G01*
X137216000Y-99393000D01*
G75*
G02*
X137391000Y-99218000I175000J0D01*
G01*
X139091000Y-99218000D01*
G75*
G02*
X139266000Y-99393000I0J-175000D01*
G01*
G37*
G36*
G01*
X139266000Y-100663000D02*
X139266000Y-101013000D01*
G75*
G02*
X139091000Y-101188000I-175000J0D01*
G01*
X137391000Y-101188000D01*
G75*
G02*
X137216000Y-101013000I0J175000D01*
G01*
X137216000Y-100663000D01*
G75*
G02*
X137391000Y-100488000I175000J0D01*
G01*
X139091000Y-100488000D01*
G75*
G02*
X139266000Y-100663000I0J-175000D01*
G01*
G37*
G36*
G01*
X139266000Y-101933000D02*
X139266000Y-102283000D01*
G75*
G02*
X139091000Y-102458000I-175000J0D01*
G01*
X137391000Y-102458000D01*
G75*
G02*
X137216000Y-102283000I0J175000D01*
G01*
X137216000Y-101933000D01*
G75*
G02*
X137391000Y-101758000I175000J0D01*
G01*
X139091000Y-101758000D01*
G75*
G02*
X139266000Y-101933000I0J-175000D01*
G01*
G37*
G36*
G01*
X139266000Y-103203000D02*
X139266000Y-103553000D01*
G75*
G02*
X139091000Y-103728000I-175000J0D01*
G01*
X137391000Y-103728000D01*
G75*
G02*
X137216000Y-103553000I0J175000D01*
G01*
X137216000Y-103203000D01*
G75*
G02*
X137391000Y-103028000I175000J0D01*
G01*
X139091000Y-103028000D01*
G75*
G02*
X139266000Y-103203000I0J-175000D01*
G01*
G37*
G36*
G01*
X139266000Y-104473000D02*
X139266000Y-104823000D01*
G75*
G02*
X139091000Y-104998000I-175000J0D01*
G01*
X137391000Y-104998000D01*
G75*
G02*
X137216000Y-104823000I0J175000D01*
G01*
X137216000Y-104473000D01*
G75*
G02*
X137391000Y-104298000I175000J0D01*
G01*
X139091000Y-104298000D01*
G75*
G02*
X139266000Y-104473000I0J-175000D01*
G01*
G37*
G36*
G01*
X139266000Y-105743000D02*
X139266000Y-106093000D01*
G75*
G02*
X139091000Y-106268000I-175000J0D01*
G01*
X137391000Y-106268000D01*
G75*
G02*
X137216000Y-106093000I0J175000D01*
G01*
X137216000Y-105743000D01*
G75*
G02*
X137391000Y-105568000I175000J0D01*
G01*
X139091000Y-105568000D01*
G75*
G02*
X139266000Y-105743000I0J-175000D01*
G01*
G37*
D15*
X149436000Y-98994000D03*
X149436000Y-98044000D03*
X149436000Y-97094000D03*
X147236000Y-97094000D03*
X147236000Y-98994000D03*
M02*
