%TF.GenerationSoftware,KiCad,Pcbnew,(5.1.6)-1*%
%TF.CreationDate,2020-05-29T23:07:58+02:00*%
%TF.ProjectId,HottTankuhr,486f7474-5461-46e6-9b75-68722e6b6963,rev?*%
%TF.SameCoordinates,Original*%
%TF.FileFunction,Copper,L2,Bot*%
%TF.FilePolarity,Positive*%
%FSLAX46Y46*%
G04 Gerber Fmt 4.6, Leading zero omitted, Abs format (unit mm)*
G04 Created by KiCad (PCBNEW (5.1.6)-1) date 2020-05-29 23:07:58*
%MOMM*%
%LPD*%
G01*
G04 APERTURE LIST*
%TA.AperFunction,ComponentPad*%
%ADD10R,5.500000X3.500000*%
%TD*%
%TA.AperFunction,SMDPad,CuDef*%
%ADD11R,5.500000X3.500000*%
%TD*%
%TA.AperFunction,ViaPad*%
%ADD12C,0.600000*%
%TD*%
%TA.AperFunction,Conductor*%
%ADD13C,0.500000*%
%TD*%
%TA.AperFunction,Conductor*%
%ADD14C,0.200000*%
%TD*%
%TA.AperFunction,Conductor*%
%ADD15C,0.254000*%
%TD*%
G04 APERTURE END LIST*
D10*
X160020000Y-82900000D03*
D11*
X160020000Y-86900000D03*
D10*
X160020000Y-94900000D03*
D11*
X160020000Y-90900000D03*
D10*
X139700000Y-82900000D03*
D11*
X139700000Y-86900000D03*
D10*
X139700000Y-94900000D03*
D11*
X139700000Y-90900000D03*
D12*
X158242000Y-99568000D03*
X160782000Y-106426000D03*
X157226000Y-103124000D03*
X139954000Y-105918000D03*
X146304000Y-98044000D03*
X150368000Y-98044000D03*
X150266500Y-100939500D03*
X145272241Y-99737990D03*
X145034000Y-103124000D03*
X152400000Y-105156000D03*
X142748000Y-89916000D03*
X143256000Y-90424000D03*
X143764000Y-89916000D03*
X143764000Y-90932000D03*
X142748000Y-90932000D03*
X143256000Y-91440000D03*
X143256000Y-92456000D03*
X143256000Y-93472000D03*
X143256000Y-94488000D03*
X143256000Y-95504000D03*
X143256000Y-96520000D03*
X142748000Y-96012000D03*
X142748000Y-94996000D03*
X142748000Y-93980000D03*
X142748000Y-92964000D03*
X142748000Y-91948000D03*
X143764000Y-91948000D03*
X143764000Y-92964000D03*
X143764000Y-93980000D03*
X143764000Y-94996000D03*
X143764000Y-96012000D03*
X155956000Y-89916000D03*
X155956000Y-90932000D03*
X155956000Y-91948000D03*
X155956000Y-92964000D03*
X155956000Y-93980000D03*
X155956000Y-94996000D03*
X156972000Y-89916000D03*
X156464000Y-90424000D03*
X156972000Y-90932000D03*
X156464000Y-91440000D03*
X156972000Y-91948000D03*
X156464000Y-92456000D03*
X156972000Y-92964000D03*
X156464000Y-93472000D03*
X156972000Y-93980000D03*
X156464000Y-94488000D03*
X156972000Y-94996000D03*
X156464000Y-95504000D03*
X156972000Y-96012000D03*
X140970000Y-99568000D03*
X141142117Y-102967701D03*
X154432000Y-106426000D03*
X146558000Y-100076000D03*
X148343909Y-100083909D03*
X145542000Y-101558000D03*
X148336000Y-101854000D03*
X143510000Y-87122000D03*
X145034000Y-87122000D03*
X146558000Y-87122000D03*
X148082000Y-87122000D03*
X149606000Y-87122000D03*
X151130000Y-87122000D03*
X152654000Y-87122000D03*
X154178000Y-87122000D03*
X155702000Y-87122000D03*
X143510000Y-82296000D03*
X145034000Y-82296000D03*
X146558000Y-82296000D03*
X148082000Y-82296000D03*
X149606000Y-82296000D03*
X151130000Y-82296000D03*
X152654000Y-82296000D03*
X154178000Y-82296000D03*
X155702000Y-82296000D03*
D13*
X158242000Y-99568000D02*
X158242000Y-102108000D01*
X158242000Y-102108000D02*
X158750000Y-102616000D01*
X158750000Y-102616000D02*
X160528000Y-102616000D01*
X160528000Y-102616000D02*
X160782000Y-102870000D01*
X160782000Y-102870000D02*
X160782000Y-106426000D01*
D14*
X144991999Y-100018232D02*
X145272241Y-99737990D01*
X144991999Y-103081999D02*
X144991999Y-100018232D01*
X145034000Y-103124000D02*
X144991999Y-103081999D01*
X147066000Y-105156000D02*
X145034000Y-103124000D01*
X152400000Y-105156000D02*
X147066000Y-105156000D01*
X140970000Y-99568000D02*
X140970000Y-102870000D01*
X140970000Y-102870000D02*
X141044416Y-102870000D01*
X141044416Y-102870000D02*
X141142117Y-102967701D01*
X154432000Y-106426000D02*
X141986000Y-106426000D01*
X141142117Y-105582117D02*
X141142117Y-102967701D01*
X141986000Y-106426000D02*
X141142117Y-105582117D01*
X146558000Y-100076000D02*
X148336000Y-100076000D01*
X148336000Y-100076000D02*
X148343909Y-100083909D01*
X145542000Y-101558000D02*
X148040000Y-101558000D01*
X148040000Y-101558000D02*
X148336000Y-101854000D01*
D15*
G36*
X162433000Y-88265000D02*
G01*
X137287000Y-88265000D01*
X137287000Y-81407000D01*
X162433000Y-81407000D01*
X162433000Y-88265000D01*
G37*
X162433000Y-88265000D02*
X137287000Y-88265000D01*
X137287000Y-81407000D01*
X162433000Y-81407000D01*
X162433000Y-88265000D01*
G36*
X162433000Y-96901000D02*
G01*
X157024606Y-96901000D01*
X156045803Y-95922197D01*
X156026557Y-95906403D01*
X156004601Y-95894667D01*
X155980776Y-95887440D01*
X155956000Y-95885000D01*
X155575000Y-95885000D01*
X155575000Y-89535000D01*
X162433000Y-89535000D01*
X162433000Y-96901000D01*
G37*
X162433000Y-96901000D02*
X157024606Y-96901000D01*
X156045803Y-95922197D01*
X156026557Y-95906403D01*
X156004601Y-95894667D01*
X155980776Y-95887440D01*
X155956000Y-95885000D01*
X155575000Y-95885000D01*
X155575000Y-89535000D01*
X162433000Y-89535000D01*
X162433000Y-96901000D01*
G36*
X144145000Y-95959394D02*
G01*
X143203394Y-96901000D01*
X137287000Y-96901000D01*
X137287000Y-89535000D01*
X144145000Y-89535000D01*
X144145000Y-95959394D01*
G37*
X144145000Y-95959394D02*
X143203394Y-96901000D01*
X137287000Y-96901000D01*
X137287000Y-89535000D01*
X144145000Y-89535000D01*
X144145000Y-95959394D01*
G36*
X162535000Y-106655000D02*
G01*
X161689766Y-106655000D01*
X161717000Y-106518089D01*
X161717000Y-106333911D01*
X161681068Y-106153271D01*
X161667000Y-106119308D01*
X161667000Y-102913465D01*
X161671281Y-102869999D01*
X161667000Y-102826533D01*
X161667000Y-102826523D01*
X161654195Y-102696510D01*
X161603589Y-102529687D01*
X161521411Y-102375941D01*
X161410817Y-102241183D01*
X161377045Y-102213467D01*
X161184532Y-102020954D01*
X161156817Y-101987183D01*
X161022059Y-101876589D01*
X160868313Y-101794411D01*
X160701490Y-101743805D01*
X160571477Y-101731000D01*
X160571469Y-101731000D01*
X160528000Y-101726719D01*
X160484531Y-101731000D01*
X159127000Y-101731000D01*
X159127000Y-99874692D01*
X159141068Y-99840729D01*
X159177000Y-99660089D01*
X159177000Y-99475911D01*
X159141068Y-99295271D01*
X159070586Y-99125111D01*
X158968262Y-98971972D01*
X158838028Y-98841738D01*
X158684889Y-98739414D01*
X158514729Y-98668932D01*
X158334089Y-98633000D01*
X158149911Y-98633000D01*
X157969271Y-98668932D01*
X157799111Y-98739414D01*
X157645972Y-98841738D01*
X157515738Y-98971972D01*
X157413414Y-99125111D01*
X157342932Y-99295271D01*
X157307000Y-99475911D01*
X157307000Y-99660089D01*
X157342932Y-99840729D01*
X157357000Y-99874693D01*
X157357001Y-102064521D01*
X157352719Y-102108000D01*
X157369805Y-102281490D01*
X157420412Y-102448313D01*
X157502590Y-102602059D01*
X157585468Y-102703046D01*
X157585471Y-102703049D01*
X157613184Y-102736817D01*
X157646952Y-102764530D01*
X158093466Y-103211044D01*
X158121183Y-103244817D01*
X158255941Y-103355411D01*
X158409687Y-103437589D01*
X158576510Y-103488195D01*
X158706523Y-103501000D01*
X158706533Y-103501000D01*
X158749999Y-103505281D01*
X158793465Y-103501000D01*
X159897000Y-103501000D01*
X159897001Y-106119305D01*
X159882932Y-106153271D01*
X159847000Y-106333911D01*
X159847000Y-106518089D01*
X159874234Y-106655000D01*
X155339766Y-106655000D01*
X155367000Y-106518089D01*
X155367000Y-106333911D01*
X155331068Y-106153271D01*
X155260586Y-105983111D01*
X155158262Y-105829972D01*
X155028028Y-105699738D01*
X154874889Y-105597414D01*
X154704729Y-105526932D01*
X154524089Y-105491000D01*
X154339911Y-105491000D01*
X154159271Y-105526932D01*
X153989111Y-105597414D01*
X153849049Y-105691000D01*
X153167040Y-105691000D01*
X153228586Y-105598889D01*
X153299068Y-105428729D01*
X153335000Y-105248089D01*
X153335000Y-105063911D01*
X153299068Y-104883271D01*
X153228586Y-104713111D01*
X153126262Y-104559972D01*
X152996028Y-104429738D01*
X152842889Y-104327414D01*
X152672729Y-104256932D01*
X152492089Y-104221000D01*
X152307911Y-104221000D01*
X152127271Y-104256932D01*
X151957111Y-104327414D01*
X151817049Y-104421000D01*
X147370447Y-104421000D01*
X145965932Y-103016485D01*
X145933068Y-102851271D01*
X145862586Y-102681111D01*
X145760262Y-102527972D01*
X145726999Y-102494709D01*
X145726999Y-102474519D01*
X145814729Y-102457068D01*
X145984889Y-102386586D01*
X146124951Y-102293000D01*
X147505803Y-102293000D01*
X147507414Y-102296889D01*
X147609738Y-102450028D01*
X147739972Y-102580262D01*
X147893111Y-102682586D01*
X148063271Y-102753068D01*
X148243911Y-102789000D01*
X148428089Y-102789000D01*
X148608729Y-102753068D01*
X148778889Y-102682586D01*
X148932028Y-102580262D01*
X149062262Y-102450028D01*
X149164586Y-102296889D01*
X149235068Y-102126729D01*
X149271000Y-101946089D01*
X149271000Y-101761911D01*
X149235068Y-101581271D01*
X149164586Y-101411111D01*
X149062262Y-101257972D01*
X148932028Y-101127738D01*
X148778889Y-101025414D01*
X148646537Y-100970592D01*
X148786798Y-100912495D01*
X148939937Y-100810171D01*
X149070171Y-100679937D01*
X149172495Y-100526798D01*
X149242977Y-100356638D01*
X149278909Y-100175998D01*
X149278909Y-99991820D01*
X149242977Y-99811180D01*
X149172495Y-99641020D01*
X149070171Y-99487881D01*
X148939937Y-99357647D01*
X148786798Y-99255323D01*
X148616638Y-99184841D01*
X148435998Y-99148909D01*
X148251820Y-99148909D01*
X148071180Y-99184841D01*
X147901020Y-99255323D01*
X147772795Y-99341000D01*
X147140951Y-99341000D01*
X147000889Y-99247414D01*
X146830729Y-99176932D01*
X146650089Y-99141000D01*
X146465911Y-99141000D01*
X146285271Y-99176932D01*
X146115111Y-99247414D01*
X146083207Y-99268731D01*
X145998503Y-99141962D01*
X145868269Y-99011728D01*
X145715130Y-98909404D01*
X145544970Y-98838922D01*
X145364330Y-98802990D01*
X145180152Y-98802990D01*
X144999512Y-98838922D01*
X144829352Y-98909404D01*
X144676213Y-99011728D01*
X144545979Y-99141962D01*
X144443655Y-99295101D01*
X144373173Y-99465261D01*
X144337241Y-99645901D01*
X144337241Y-99684004D01*
X144309663Y-99735599D01*
X144267634Y-99874147D01*
X144253443Y-100018232D01*
X144257000Y-100054347D01*
X144256999Y-102603908D01*
X144205414Y-102681111D01*
X144134932Y-102851271D01*
X144099000Y-103031911D01*
X144099000Y-103216089D01*
X144134932Y-103396729D01*
X144205414Y-103566889D01*
X144307738Y-103720028D01*
X144437972Y-103850262D01*
X144591111Y-103952586D01*
X144761271Y-104023068D01*
X144926485Y-104055932D01*
X146520746Y-105650193D01*
X146543762Y-105678238D01*
X146559312Y-105691000D01*
X142290447Y-105691000D01*
X141877117Y-105277671D01*
X141877117Y-103550652D01*
X141970703Y-103410590D01*
X142041185Y-103240430D01*
X142077117Y-103059790D01*
X142077117Y-102875612D01*
X142041185Y-102694972D01*
X141970703Y-102524812D01*
X141868379Y-102371673D01*
X141738145Y-102241439D01*
X141705000Y-102219292D01*
X141705000Y-100150951D01*
X141798586Y-100010889D01*
X141869068Y-99840729D01*
X141905000Y-99660089D01*
X141905000Y-99475911D01*
X141869068Y-99295271D01*
X141798586Y-99125111D01*
X141696262Y-98971972D01*
X141566028Y-98841738D01*
X141412889Y-98739414D01*
X141242729Y-98668932D01*
X141062089Y-98633000D01*
X140877911Y-98633000D01*
X140697271Y-98668932D01*
X140527111Y-98739414D01*
X140373972Y-98841738D01*
X140243738Y-98971972D01*
X140141414Y-99125111D01*
X140070932Y-99295271D01*
X140035000Y-99475911D01*
X140035000Y-99660089D01*
X140070932Y-99840729D01*
X140141414Y-100010889D01*
X140235000Y-100150951D01*
X140235001Y-102735432D01*
X140207117Y-102875612D01*
X140207117Y-103059790D01*
X140243049Y-103240430D01*
X140313531Y-103410590D01*
X140407118Y-103550653D01*
X140407117Y-105546012D01*
X140403561Y-105582117D01*
X140417752Y-105726202D01*
X140430501Y-105768230D01*
X140459780Y-105864749D01*
X140528030Y-105992436D01*
X140619879Y-106104354D01*
X140647925Y-106127371D01*
X141175553Y-106655000D01*
X137185000Y-106655000D01*
X137185000Y-97663000D01*
X162535000Y-97663000D01*
X162535000Y-106655000D01*
G37*
X162535000Y-106655000D02*
X161689766Y-106655000D01*
X161717000Y-106518089D01*
X161717000Y-106333911D01*
X161681068Y-106153271D01*
X161667000Y-106119308D01*
X161667000Y-102913465D01*
X161671281Y-102869999D01*
X161667000Y-102826533D01*
X161667000Y-102826523D01*
X161654195Y-102696510D01*
X161603589Y-102529687D01*
X161521411Y-102375941D01*
X161410817Y-102241183D01*
X161377045Y-102213467D01*
X161184532Y-102020954D01*
X161156817Y-101987183D01*
X161022059Y-101876589D01*
X160868313Y-101794411D01*
X160701490Y-101743805D01*
X160571477Y-101731000D01*
X160571469Y-101731000D01*
X160528000Y-101726719D01*
X160484531Y-101731000D01*
X159127000Y-101731000D01*
X159127000Y-99874692D01*
X159141068Y-99840729D01*
X159177000Y-99660089D01*
X159177000Y-99475911D01*
X159141068Y-99295271D01*
X159070586Y-99125111D01*
X158968262Y-98971972D01*
X158838028Y-98841738D01*
X158684889Y-98739414D01*
X158514729Y-98668932D01*
X158334089Y-98633000D01*
X158149911Y-98633000D01*
X157969271Y-98668932D01*
X157799111Y-98739414D01*
X157645972Y-98841738D01*
X157515738Y-98971972D01*
X157413414Y-99125111D01*
X157342932Y-99295271D01*
X157307000Y-99475911D01*
X157307000Y-99660089D01*
X157342932Y-99840729D01*
X157357000Y-99874693D01*
X157357001Y-102064521D01*
X157352719Y-102108000D01*
X157369805Y-102281490D01*
X157420412Y-102448313D01*
X157502590Y-102602059D01*
X157585468Y-102703046D01*
X157585471Y-102703049D01*
X157613184Y-102736817D01*
X157646952Y-102764530D01*
X158093466Y-103211044D01*
X158121183Y-103244817D01*
X158255941Y-103355411D01*
X158409687Y-103437589D01*
X158576510Y-103488195D01*
X158706523Y-103501000D01*
X158706533Y-103501000D01*
X158749999Y-103505281D01*
X158793465Y-103501000D01*
X159897000Y-103501000D01*
X159897001Y-106119305D01*
X159882932Y-106153271D01*
X159847000Y-106333911D01*
X159847000Y-106518089D01*
X159874234Y-106655000D01*
X155339766Y-106655000D01*
X155367000Y-106518089D01*
X155367000Y-106333911D01*
X155331068Y-106153271D01*
X155260586Y-105983111D01*
X155158262Y-105829972D01*
X155028028Y-105699738D01*
X154874889Y-105597414D01*
X154704729Y-105526932D01*
X154524089Y-105491000D01*
X154339911Y-105491000D01*
X154159271Y-105526932D01*
X153989111Y-105597414D01*
X153849049Y-105691000D01*
X153167040Y-105691000D01*
X153228586Y-105598889D01*
X153299068Y-105428729D01*
X153335000Y-105248089D01*
X153335000Y-105063911D01*
X153299068Y-104883271D01*
X153228586Y-104713111D01*
X153126262Y-104559972D01*
X152996028Y-104429738D01*
X152842889Y-104327414D01*
X152672729Y-104256932D01*
X152492089Y-104221000D01*
X152307911Y-104221000D01*
X152127271Y-104256932D01*
X151957111Y-104327414D01*
X151817049Y-104421000D01*
X147370447Y-104421000D01*
X145965932Y-103016485D01*
X145933068Y-102851271D01*
X145862586Y-102681111D01*
X145760262Y-102527972D01*
X145726999Y-102494709D01*
X145726999Y-102474519D01*
X145814729Y-102457068D01*
X145984889Y-102386586D01*
X146124951Y-102293000D01*
X147505803Y-102293000D01*
X147507414Y-102296889D01*
X147609738Y-102450028D01*
X147739972Y-102580262D01*
X147893111Y-102682586D01*
X148063271Y-102753068D01*
X148243911Y-102789000D01*
X148428089Y-102789000D01*
X148608729Y-102753068D01*
X148778889Y-102682586D01*
X148932028Y-102580262D01*
X149062262Y-102450028D01*
X149164586Y-102296889D01*
X149235068Y-102126729D01*
X149271000Y-101946089D01*
X149271000Y-101761911D01*
X149235068Y-101581271D01*
X149164586Y-101411111D01*
X149062262Y-101257972D01*
X148932028Y-101127738D01*
X148778889Y-101025414D01*
X148646537Y-100970592D01*
X148786798Y-100912495D01*
X148939937Y-100810171D01*
X149070171Y-100679937D01*
X149172495Y-100526798D01*
X149242977Y-100356638D01*
X149278909Y-100175998D01*
X149278909Y-99991820D01*
X149242977Y-99811180D01*
X149172495Y-99641020D01*
X149070171Y-99487881D01*
X148939937Y-99357647D01*
X148786798Y-99255323D01*
X148616638Y-99184841D01*
X148435998Y-99148909D01*
X148251820Y-99148909D01*
X148071180Y-99184841D01*
X147901020Y-99255323D01*
X147772795Y-99341000D01*
X147140951Y-99341000D01*
X147000889Y-99247414D01*
X146830729Y-99176932D01*
X146650089Y-99141000D01*
X146465911Y-99141000D01*
X146285271Y-99176932D01*
X146115111Y-99247414D01*
X146083207Y-99268731D01*
X145998503Y-99141962D01*
X145868269Y-99011728D01*
X145715130Y-98909404D01*
X145544970Y-98838922D01*
X145364330Y-98802990D01*
X145180152Y-98802990D01*
X144999512Y-98838922D01*
X144829352Y-98909404D01*
X144676213Y-99011728D01*
X144545979Y-99141962D01*
X144443655Y-99295101D01*
X144373173Y-99465261D01*
X144337241Y-99645901D01*
X144337241Y-99684004D01*
X144309663Y-99735599D01*
X144267634Y-99874147D01*
X144253443Y-100018232D01*
X144257000Y-100054347D01*
X144256999Y-102603908D01*
X144205414Y-102681111D01*
X144134932Y-102851271D01*
X144099000Y-103031911D01*
X144099000Y-103216089D01*
X144134932Y-103396729D01*
X144205414Y-103566889D01*
X144307738Y-103720028D01*
X144437972Y-103850262D01*
X144591111Y-103952586D01*
X144761271Y-104023068D01*
X144926485Y-104055932D01*
X146520746Y-105650193D01*
X146543762Y-105678238D01*
X146559312Y-105691000D01*
X142290447Y-105691000D01*
X141877117Y-105277671D01*
X141877117Y-103550652D01*
X141970703Y-103410590D01*
X142041185Y-103240430D01*
X142077117Y-103059790D01*
X142077117Y-102875612D01*
X142041185Y-102694972D01*
X141970703Y-102524812D01*
X141868379Y-102371673D01*
X141738145Y-102241439D01*
X141705000Y-102219292D01*
X141705000Y-100150951D01*
X141798586Y-100010889D01*
X141869068Y-99840729D01*
X141905000Y-99660089D01*
X141905000Y-99475911D01*
X141869068Y-99295271D01*
X141798586Y-99125111D01*
X141696262Y-98971972D01*
X141566028Y-98841738D01*
X141412889Y-98739414D01*
X141242729Y-98668932D01*
X141062089Y-98633000D01*
X140877911Y-98633000D01*
X140697271Y-98668932D01*
X140527111Y-98739414D01*
X140373972Y-98841738D01*
X140243738Y-98971972D01*
X140141414Y-99125111D01*
X140070932Y-99295271D01*
X140035000Y-99475911D01*
X140035000Y-99660089D01*
X140070932Y-99840729D01*
X140141414Y-100010889D01*
X140235000Y-100150951D01*
X140235001Y-102735432D01*
X140207117Y-102875612D01*
X140207117Y-103059790D01*
X140243049Y-103240430D01*
X140313531Y-103410590D01*
X140407118Y-103550653D01*
X140407117Y-105546012D01*
X140403561Y-105582117D01*
X140417752Y-105726202D01*
X140430501Y-105768230D01*
X140459780Y-105864749D01*
X140528030Y-105992436D01*
X140619879Y-106104354D01*
X140647925Y-106127371D01*
X141175553Y-106655000D01*
X137185000Y-106655000D01*
X137185000Y-97663000D01*
X162535000Y-97663000D01*
X162535000Y-106655000D01*
M02*
