M48
INCH,TZ
T1C0.0118
T2C0.0787
%
G90
G05
T1
X55100Y-41700
X55500Y-39200
X55568Y-40538
X56200Y-35400
X56200Y-35800
X56200Y-36200
X56200Y-36600
X56200Y-37000
X56200Y-37400
X56200Y-37800
X56400Y-35600
X56400Y-36000
X56400Y-36400
X56400Y-36800
X56400Y-37200
X56400Y-37600
X56400Y-38000
X56500Y-32400
X56500Y-34300
X56600Y-35400
X56600Y-35800
X56600Y-36200
X56600Y-36600
X56600Y-37000
X56600Y-37400
X56600Y-37800
X57100Y-32400
X57100Y-34300
X57100Y-40600
X57194Y-39267
X57300Y-39983
X57600Y-38600
X57700Y-32400
X57700Y-34300
X57700Y-39400
X58300Y-32400
X58300Y-34300
X58400Y-40100
X58403Y-39403
X58900Y-32400
X58900Y-34300
X59160Y-39740
X59200Y-38600
X59500Y-32400
X59500Y-34300
X60000Y-41400
X60100Y-32400
X60100Y-34300
X60700Y-32400
X60700Y-34300
X60800Y-41900
X61300Y-32400
X61300Y-34300
X61400Y-35400
X61400Y-35800
X61400Y-36200
X61400Y-36600
X61400Y-37000
X61400Y-37400
X61600Y-35600
X61600Y-36000
X61600Y-36400
X61600Y-36800
X61600Y-37200
X61600Y-37600
X61800Y-35400
X61800Y-35800
X61800Y-36200
X61800Y-36600
X61800Y-37000
X61800Y-37400
X61800Y-37800
X61900Y-40600
X62300Y-39200
X63300Y-41900
T2
G00X62409Y-32638
M15
G01X63591Y-32638
M16
G05
G00X62409Y-37362
M15
G01X63591Y-37362
M16
G05
G00X54409Y-32638
M15
G01X55591Y-32638
M16
G05
G00X54409Y-37362
M15
G01X55591Y-37362
M16
G05
T0
M30
