%TF.GenerationSoftware,KiCad,Pcbnew,(5.1.6)-1*%
%TF.CreationDate,2020-05-29T23:07:58+02:00*%
%TF.ProjectId,HottTankuhr,486f7474-5461-46e6-9b75-68722e6b6963,rev?*%
%TF.SameCoordinates,Original*%
%TF.FileFunction,Copper,L1,Top*%
%TF.FilePolarity,Positive*%
%FSLAX46Y46*%
G04 Gerber Fmt 4.6, Leading zero omitted, Abs format (unit mm)*
G04 Created by KiCad (PCBNEW (5.1.6)-1) date 2020-05-29 23:07:58*
%MOMM*%
%LPD*%
G01*
G04 APERTURE LIST*
%TA.AperFunction,ComponentPad*%
%ADD10R,5.500000X3.500000*%
%TD*%
%TA.AperFunction,SMDPad,CuDef*%
%ADD11R,5.500000X3.500000*%
%TD*%
%TA.AperFunction,SMDPad,CuDef*%
%ADD12R,2.700000X6.200000*%
%TD*%
%TA.AperFunction,SMDPad,CuDef*%
%ADD13R,4.000000X1.000000*%
%TD*%
%TA.AperFunction,SMDPad,CuDef*%
%ADD14R,0.900000X0.800000*%
%TD*%
%TA.AperFunction,SMDPad,CuDef*%
%ADD15R,1.060000X0.650000*%
%TD*%
%TA.AperFunction,ViaPad*%
%ADD16C,0.600000*%
%TD*%
%TA.AperFunction,Conductor*%
%ADD17C,0.500000*%
%TD*%
%TA.AperFunction,Conductor*%
%ADD18C,0.200000*%
%TD*%
%TA.AperFunction,Conductor*%
%ADD19C,0.254000*%
%TD*%
G04 APERTURE END LIST*
D10*
X160020000Y-82900000D03*
D11*
X160020000Y-86900000D03*
X160020000Y-90900000D03*
D10*
X160020000Y-94900000D03*
X139700000Y-82900000D03*
D11*
X139700000Y-86900000D03*
X139700000Y-90900000D03*
D10*
X139700000Y-94900000D03*
%TA.AperFunction,SMDPad,CuDef*%
G36*
G01*
X162562250Y-106381000D02*
X162049750Y-106381000D01*
G75*
G02*
X161831000Y-106162250I0J218750D01*
G01*
X161831000Y-105724750D01*
G75*
G02*
X162049750Y-105506000I218750J0D01*
G01*
X162562250Y-105506000D01*
G75*
G02*
X162781000Y-105724750I0J-218750D01*
G01*
X162781000Y-106162250D01*
G75*
G02*
X162562250Y-106381000I-218750J0D01*
G01*
G37*
%TD.AperFunction*%
%TA.AperFunction,SMDPad,CuDef*%
G36*
G01*
X162562250Y-104806000D02*
X162049750Y-104806000D01*
G75*
G02*
X161831000Y-104587250I0J218750D01*
G01*
X161831000Y-104149750D01*
G75*
G02*
X162049750Y-103931000I218750J0D01*
G01*
X162562250Y-103931000D01*
G75*
G02*
X162781000Y-104149750I0J-218750D01*
G01*
X162781000Y-104587250D01*
G75*
G02*
X162562250Y-104806000I-218750J0D01*
G01*
G37*
%TD.AperFunction*%
%TA.AperFunction,SMDPad,CuDef*%
G36*
G01*
X145031750Y-105506000D02*
X145544250Y-105506000D01*
G75*
G02*
X145763000Y-105724750I0J-218750D01*
G01*
X145763000Y-106162250D01*
G75*
G02*
X145544250Y-106381000I-218750J0D01*
G01*
X145031750Y-106381000D01*
G75*
G02*
X144813000Y-106162250I0J218750D01*
G01*
X144813000Y-105724750D01*
G75*
G02*
X145031750Y-105506000I218750J0D01*
G01*
G37*
%TD.AperFunction*%
%TA.AperFunction,SMDPad,CuDef*%
G36*
G01*
X145031750Y-103931000D02*
X145544250Y-103931000D01*
G75*
G02*
X145763000Y-104149750I0J-218750D01*
G01*
X145763000Y-104587250D01*
G75*
G02*
X145544250Y-104806000I-218750J0D01*
G01*
X145031750Y-104806000D01*
G75*
G02*
X144813000Y-104587250I0J218750D01*
G01*
X144813000Y-104149750D01*
G75*
G02*
X145031750Y-103931000I218750J0D01*
G01*
G37*
%TD.AperFunction*%
D12*
X154010000Y-92710000D03*
X145710000Y-92710000D03*
%TA.AperFunction,SMDPad,CuDef*%
G36*
G01*
X151127750Y-105506000D02*
X151640250Y-105506000D01*
G75*
G02*
X151859000Y-105724750I0J-218750D01*
G01*
X151859000Y-106162250D01*
G75*
G02*
X151640250Y-106381000I-218750J0D01*
G01*
X151127750Y-106381000D01*
G75*
G02*
X150909000Y-106162250I0J218750D01*
G01*
X150909000Y-105724750D01*
G75*
G02*
X151127750Y-105506000I218750J0D01*
G01*
G37*
%TD.AperFunction*%
%TA.AperFunction,SMDPad,CuDef*%
G36*
G01*
X151127750Y-103931000D02*
X151640250Y-103931000D01*
G75*
G02*
X151859000Y-104149750I0J-218750D01*
G01*
X151859000Y-104587250D01*
G75*
G02*
X151640250Y-104806000I-218750J0D01*
G01*
X151127750Y-104806000D01*
G75*
G02*
X150909000Y-104587250I0J218750D01*
G01*
X150909000Y-104149750D01*
G75*
G02*
X151127750Y-103931000I218750J0D01*
G01*
G37*
%TD.AperFunction*%
%TA.AperFunction,SMDPad,CuDef*%
G36*
G01*
X147576250Y-104806000D02*
X147063750Y-104806000D01*
G75*
G02*
X146845000Y-104587250I0J218750D01*
G01*
X146845000Y-104149750D01*
G75*
G02*
X147063750Y-103931000I218750J0D01*
G01*
X147576250Y-103931000D01*
G75*
G02*
X147795000Y-104149750I0J-218750D01*
G01*
X147795000Y-104587250D01*
G75*
G02*
X147576250Y-104806000I-218750J0D01*
G01*
G37*
%TD.AperFunction*%
%TA.AperFunction,SMDPad,CuDef*%
G36*
G01*
X147576250Y-106381000D02*
X147063750Y-106381000D01*
G75*
G02*
X146845000Y-106162250I0J218750D01*
G01*
X146845000Y-105724750D01*
G75*
G02*
X147063750Y-105506000I218750J0D01*
G01*
X147576250Y-105506000D01*
G75*
G02*
X147795000Y-105724750I0J-218750D01*
G01*
X147795000Y-106162250D01*
G75*
G02*
X147576250Y-106381000I-218750J0D01*
G01*
G37*
%TD.AperFunction*%
%TA.AperFunction,SMDPad,CuDef*%
G36*
G01*
X153159750Y-105506000D02*
X153672250Y-105506000D01*
G75*
G02*
X153891000Y-105724750I0J-218750D01*
G01*
X153891000Y-106162250D01*
G75*
G02*
X153672250Y-106381000I-218750J0D01*
G01*
X153159750Y-106381000D01*
G75*
G02*
X152941000Y-106162250I0J218750D01*
G01*
X152941000Y-105724750D01*
G75*
G02*
X153159750Y-105506000I218750J0D01*
G01*
G37*
%TD.AperFunction*%
%TA.AperFunction,SMDPad,CuDef*%
G36*
G01*
X153159750Y-103931000D02*
X153672250Y-103931000D01*
G75*
G02*
X153891000Y-104149750I0J-218750D01*
G01*
X153891000Y-104587250D01*
G75*
G02*
X153672250Y-104806000I-218750J0D01*
G01*
X153159750Y-104806000D01*
G75*
G02*
X152941000Y-104587250I0J218750D01*
G01*
X152941000Y-104149750D01*
G75*
G02*
X153159750Y-103931000I218750J0D01*
G01*
G37*
%TD.AperFunction*%
%TA.AperFunction,SMDPad,CuDef*%
G36*
G01*
X149095750Y-105506000D02*
X149608250Y-105506000D01*
G75*
G02*
X149827000Y-105724750I0J-218750D01*
G01*
X149827000Y-106162250D01*
G75*
G02*
X149608250Y-106381000I-218750J0D01*
G01*
X149095750Y-106381000D01*
G75*
G02*
X148877000Y-106162250I0J218750D01*
G01*
X148877000Y-105724750D01*
G75*
G02*
X149095750Y-105506000I218750J0D01*
G01*
G37*
%TD.AperFunction*%
%TA.AperFunction,SMDPad,CuDef*%
G36*
G01*
X149095750Y-103931000D02*
X149608250Y-103931000D01*
G75*
G02*
X149827000Y-104149750I0J-218750D01*
G01*
X149827000Y-104587250D01*
G75*
G02*
X149608250Y-104806000I-218750J0D01*
G01*
X149095750Y-104806000D01*
G75*
G02*
X148877000Y-104587250I0J218750D01*
G01*
X148877000Y-104149750D01*
G75*
G02*
X149095750Y-103931000I218750J0D01*
G01*
G37*
%TD.AperFunction*%
%TA.AperFunction,SMDPad,CuDef*%
G36*
G01*
X149608250Y-101377000D02*
X149095750Y-101377000D01*
G75*
G02*
X148877000Y-101158250I0J218750D01*
G01*
X148877000Y-100720750D01*
G75*
G02*
X149095750Y-100502000I218750J0D01*
G01*
X149608250Y-100502000D01*
G75*
G02*
X149827000Y-100720750I0J-218750D01*
G01*
X149827000Y-101158250D01*
G75*
G02*
X149608250Y-101377000I-218750J0D01*
G01*
G37*
%TD.AperFunction*%
%TA.AperFunction,SMDPad,CuDef*%
G36*
G01*
X149608250Y-102952000D02*
X149095750Y-102952000D01*
G75*
G02*
X148877000Y-102733250I0J218750D01*
G01*
X148877000Y-102295750D01*
G75*
G02*
X149095750Y-102077000I218750J0D01*
G01*
X149608250Y-102077000D01*
G75*
G02*
X149827000Y-102295750I0J-218750D01*
G01*
X149827000Y-102733250D01*
G75*
G02*
X149608250Y-102952000I-218750J0D01*
G01*
G37*
%TD.AperFunction*%
%TA.AperFunction,SMDPad,CuDef*%
G36*
G01*
X147063750Y-102077000D02*
X147576250Y-102077000D01*
G75*
G02*
X147795000Y-102295750I0J-218750D01*
G01*
X147795000Y-102733250D01*
G75*
G02*
X147576250Y-102952000I-218750J0D01*
G01*
X147063750Y-102952000D01*
G75*
G02*
X146845000Y-102733250I0J218750D01*
G01*
X146845000Y-102295750D01*
G75*
G02*
X147063750Y-102077000I218750J0D01*
G01*
G37*
%TD.AperFunction*%
%TA.AperFunction,SMDPad,CuDef*%
G36*
G01*
X147063750Y-100502000D02*
X147576250Y-100502000D01*
G75*
G02*
X147795000Y-100720750I0J-218750D01*
G01*
X147795000Y-101158250D01*
G75*
G02*
X147576250Y-101377000I-218750J0D01*
G01*
X147063750Y-101377000D01*
G75*
G02*
X146845000Y-101158250I0J218750D01*
G01*
X146845000Y-100720750D01*
G75*
G02*
X147063750Y-100502000I218750J0D01*
G01*
G37*
%TD.AperFunction*%
%TA.AperFunction,SMDPad,CuDef*%
G36*
G01*
X152242000Y-99316250D02*
X152242000Y-98803750D01*
G75*
G02*
X152460750Y-98585000I218750J0D01*
G01*
X152898250Y-98585000D01*
G75*
G02*
X153117000Y-98803750I0J-218750D01*
G01*
X153117000Y-99316250D01*
G75*
G02*
X152898250Y-99535000I-218750J0D01*
G01*
X152460750Y-99535000D01*
G75*
G02*
X152242000Y-99316250I0J218750D01*
G01*
G37*
%TD.AperFunction*%
%TA.AperFunction,SMDPad,CuDef*%
G36*
G01*
X150667000Y-99316250D02*
X150667000Y-98803750D01*
G75*
G02*
X150885750Y-98585000I218750J0D01*
G01*
X151323250Y-98585000D01*
G75*
G02*
X151542000Y-98803750I0J-218750D01*
G01*
X151542000Y-99316250D01*
G75*
G02*
X151323250Y-99535000I-218750J0D01*
G01*
X150885750Y-99535000D01*
G75*
G02*
X150667000Y-99316250I0J218750D01*
G01*
G37*
%TD.AperFunction*%
%TA.AperFunction,SMDPad,CuDef*%
G36*
G01*
X155704250Y-104806000D02*
X155191750Y-104806000D01*
G75*
G02*
X154973000Y-104587250I0J218750D01*
G01*
X154973000Y-104149750D01*
G75*
G02*
X155191750Y-103931000I218750J0D01*
G01*
X155704250Y-103931000D01*
G75*
G02*
X155923000Y-104149750I0J-218750D01*
G01*
X155923000Y-104587250D01*
G75*
G02*
X155704250Y-104806000I-218750J0D01*
G01*
G37*
%TD.AperFunction*%
%TA.AperFunction,SMDPad,CuDef*%
G36*
G01*
X155704250Y-106381000D02*
X155191750Y-106381000D01*
G75*
G02*
X154973000Y-106162250I0J218750D01*
G01*
X154973000Y-105724750D01*
G75*
G02*
X155191750Y-105506000I218750J0D01*
G01*
X155704250Y-105506000D01*
G75*
G02*
X155923000Y-105724750I0J-218750D01*
G01*
X155923000Y-106162250D01*
G75*
G02*
X155704250Y-106381000I-218750J0D01*
G01*
G37*
%TD.AperFunction*%
%TA.AperFunction,SMDPad,CuDef*%
G36*
G01*
X151640250Y-101377000D02*
X151127750Y-101377000D01*
G75*
G02*
X150909000Y-101158250I0J218750D01*
G01*
X150909000Y-100720750D01*
G75*
G02*
X151127750Y-100502000I218750J0D01*
G01*
X151640250Y-100502000D01*
G75*
G02*
X151859000Y-100720750I0J-218750D01*
G01*
X151859000Y-101158250D01*
G75*
G02*
X151640250Y-101377000I-218750J0D01*
G01*
G37*
%TD.AperFunction*%
%TA.AperFunction,SMDPad,CuDef*%
G36*
G01*
X151640250Y-102952000D02*
X151127750Y-102952000D01*
G75*
G02*
X150909000Y-102733250I0J218750D01*
G01*
X150909000Y-102295750D01*
G75*
G02*
X151127750Y-102077000I218750J0D01*
G01*
X151640250Y-102077000D01*
G75*
G02*
X151859000Y-102295750I0J-218750D01*
G01*
X151859000Y-102733250D01*
G75*
G02*
X151640250Y-102952000I-218750J0D01*
G01*
G37*
%TD.AperFunction*%
%TA.AperFunction,SMDPad,CuDef*%
G36*
G01*
X152242000Y-97284250D02*
X152242000Y-96771750D01*
G75*
G02*
X152460750Y-96553000I218750J0D01*
G01*
X152898250Y-96553000D01*
G75*
G02*
X153117000Y-96771750I0J-218750D01*
G01*
X153117000Y-97284250D01*
G75*
G02*
X152898250Y-97503000I-218750J0D01*
G01*
X152460750Y-97503000D01*
G75*
G02*
X152242000Y-97284250I0J218750D01*
G01*
G37*
%TD.AperFunction*%
%TA.AperFunction,SMDPad,CuDef*%
G36*
G01*
X150667000Y-97284250D02*
X150667000Y-96771750D01*
G75*
G02*
X150885750Y-96553000I218750J0D01*
G01*
X151323250Y-96553000D01*
G75*
G02*
X151542000Y-96771750I0J-218750D01*
G01*
X151542000Y-97284250D01*
G75*
G02*
X151323250Y-97503000I-218750J0D01*
G01*
X150885750Y-97503000D01*
G75*
G02*
X150667000Y-97284250I0J218750D01*
G01*
G37*
%TD.AperFunction*%
%TA.AperFunction,SMDPad,CuDef*%
G36*
G01*
X157482250Y-104806000D02*
X156969750Y-104806000D01*
G75*
G02*
X156751000Y-104587250I0J218750D01*
G01*
X156751000Y-104149750D01*
G75*
G02*
X156969750Y-103931000I218750J0D01*
G01*
X157482250Y-103931000D01*
G75*
G02*
X157701000Y-104149750I0J-218750D01*
G01*
X157701000Y-104587250D01*
G75*
G02*
X157482250Y-104806000I-218750J0D01*
G01*
G37*
%TD.AperFunction*%
%TA.AperFunction,SMDPad,CuDef*%
G36*
G01*
X157482250Y-106381000D02*
X156969750Y-106381000D01*
G75*
G02*
X156751000Y-106162250I0J218750D01*
G01*
X156751000Y-105724750D01*
G75*
G02*
X156969750Y-105506000I218750J0D01*
G01*
X157482250Y-105506000D01*
G75*
G02*
X157701000Y-105724750I0J-218750D01*
G01*
X157701000Y-106162250D01*
G75*
G02*
X157482250Y-106381000I-218750J0D01*
G01*
G37*
%TD.AperFunction*%
%TA.AperFunction,SMDPad,CuDef*%
G36*
G01*
X145031750Y-96819000D02*
X145544250Y-96819000D01*
G75*
G02*
X145763000Y-97037750I0J-218750D01*
G01*
X145763000Y-97475250D01*
G75*
G02*
X145544250Y-97694000I-218750J0D01*
G01*
X145031750Y-97694000D01*
G75*
G02*
X144813000Y-97475250I0J218750D01*
G01*
X144813000Y-97037750D01*
G75*
G02*
X145031750Y-96819000I218750J0D01*
G01*
G37*
%TD.AperFunction*%
%TA.AperFunction,SMDPad,CuDef*%
G36*
G01*
X145031750Y-98394000D02*
X145544250Y-98394000D01*
G75*
G02*
X145763000Y-98612750I0J-218750D01*
G01*
X145763000Y-99050250D01*
G75*
G02*
X145544250Y-99269000I-218750J0D01*
G01*
X145031750Y-99269000D01*
G75*
G02*
X144813000Y-99050250I0J218750D01*
G01*
X144813000Y-98612750D01*
G75*
G02*
X145031750Y-98394000I218750J0D01*
G01*
G37*
%TD.AperFunction*%
D13*
X161036000Y-98298000D03*
X161036000Y-99568000D03*
X161036000Y-100838000D03*
D14*
X158766000Y-104460000D03*
X158766000Y-106360000D03*
X160766000Y-105410000D03*
%TA.AperFunction,SMDPad,CuDef*%
G36*
G01*
X144166000Y-105768000D02*
X144166000Y-106068000D01*
G75*
G02*
X144016000Y-106218000I-150000J0D01*
G01*
X142366000Y-106218000D01*
G75*
G02*
X142216000Y-106068000I0J150000D01*
G01*
X142216000Y-105768000D01*
G75*
G02*
X142366000Y-105618000I150000J0D01*
G01*
X144016000Y-105618000D01*
G75*
G02*
X144166000Y-105768000I0J-150000D01*
G01*
G37*
%TD.AperFunction*%
%TA.AperFunction,SMDPad,CuDef*%
G36*
G01*
X144166000Y-104498000D02*
X144166000Y-104798000D01*
G75*
G02*
X144016000Y-104948000I-150000J0D01*
G01*
X142366000Y-104948000D01*
G75*
G02*
X142216000Y-104798000I0J150000D01*
G01*
X142216000Y-104498000D01*
G75*
G02*
X142366000Y-104348000I150000J0D01*
G01*
X144016000Y-104348000D01*
G75*
G02*
X144166000Y-104498000I0J-150000D01*
G01*
G37*
%TD.AperFunction*%
%TA.AperFunction,SMDPad,CuDef*%
G36*
G01*
X144166000Y-103228000D02*
X144166000Y-103528000D01*
G75*
G02*
X144016000Y-103678000I-150000J0D01*
G01*
X142366000Y-103678000D01*
G75*
G02*
X142216000Y-103528000I0J150000D01*
G01*
X142216000Y-103228000D01*
G75*
G02*
X142366000Y-103078000I150000J0D01*
G01*
X144016000Y-103078000D01*
G75*
G02*
X144166000Y-103228000I0J-150000D01*
G01*
G37*
%TD.AperFunction*%
%TA.AperFunction,SMDPad,CuDef*%
G36*
G01*
X144166000Y-101958000D02*
X144166000Y-102258000D01*
G75*
G02*
X144016000Y-102408000I-150000J0D01*
G01*
X142366000Y-102408000D01*
G75*
G02*
X142216000Y-102258000I0J150000D01*
G01*
X142216000Y-101958000D01*
G75*
G02*
X142366000Y-101808000I150000J0D01*
G01*
X144016000Y-101808000D01*
G75*
G02*
X144166000Y-101958000I0J-150000D01*
G01*
G37*
%TD.AperFunction*%
%TA.AperFunction,SMDPad,CuDef*%
G36*
G01*
X144166000Y-100688000D02*
X144166000Y-100988000D01*
G75*
G02*
X144016000Y-101138000I-150000J0D01*
G01*
X142366000Y-101138000D01*
G75*
G02*
X142216000Y-100988000I0J150000D01*
G01*
X142216000Y-100688000D01*
G75*
G02*
X142366000Y-100538000I150000J0D01*
G01*
X144016000Y-100538000D01*
G75*
G02*
X144166000Y-100688000I0J-150000D01*
G01*
G37*
%TD.AperFunction*%
%TA.AperFunction,SMDPad,CuDef*%
G36*
G01*
X144166000Y-99418000D02*
X144166000Y-99718000D01*
G75*
G02*
X144016000Y-99868000I-150000J0D01*
G01*
X142366000Y-99868000D01*
G75*
G02*
X142216000Y-99718000I0J150000D01*
G01*
X142216000Y-99418000D01*
G75*
G02*
X142366000Y-99268000I150000J0D01*
G01*
X144016000Y-99268000D01*
G75*
G02*
X144166000Y-99418000I0J-150000D01*
G01*
G37*
%TD.AperFunction*%
%TA.AperFunction,SMDPad,CuDef*%
G36*
G01*
X144166000Y-98148000D02*
X144166000Y-98448000D01*
G75*
G02*
X144016000Y-98598000I-150000J0D01*
G01*
X142366000Y-98598000D01*
G75*
G02*
X142216000Y-98448000I0J150000D01*
G01*
X142216000Y-98148000D01*
G75*
G02*
X142366000Y-97998000I150000J0D01*
G01*
X144016000Y-97998000D01*
G75*
G02*
X144166000Y-98148000I0J-150000D01*
G01*
G37*
%TD.AperFunction*%
%TA.AperFunction,SMDPad,CuDef*%
G36*
G01*
X139216000Y-98148000D02*
X139216000Y-98448000D01*
G75*
G02*
X139066000Y-98598000I-150000J0D01*
G01*
X137416000Y-98598000D01*
G75*
G02*
X137266000Y-98448000I0J150000D01*
G01*
X137266000Y-98148000D01*
G75*
G02*
X137416000Y-97998000I150000J0D01*
G01*
X139066000Y-97998000D01*
G75*
G02*
X139216000Y-98148000I0J-150000D01*
G01*
G37*
%TD.AperFunction*%
%TA.AperFunction,SMDPad,CuDef*%
G36*
G01*
X139216000Y-99418000D02*
X139216000Y-99718000D01*
G75*
G02*
X139066000Y-99868000I-150000J0D01*
G01*
X137416000Y-99868000D01*
G75*
G02*
X137266000Y-99718000I0J150000D01*
G01*
X137266000Y-99418000D01*
G75*
G02*
X137416000Y-99268000I150000J0D01*
G01*
X139066000Y-99268000D01*
G75*
G02*
X139216000Y-99418000I0J-150000D01*
G01*
G37*
%TD.AperFunction*%
%TA.AperFunction,SMDPad,CuDef*%
G36*
G01*
X139216000Y-100688000D02*
X139216000Y-100988000D01*
G75*
G02*
X139066000Y-101138000I-150000J0D01*
G01*
X137416000Y-101138000D01*
G75*
G02*
X137266000Y-100988000I0J150000D01*
G01*
X137266000Y-100688000D01*
G75*
G02*
X137416000Y-100538000I150000J0D01*
G01*
X139066000Y-100538000D01*
G75*
G02*
X139216000Y-100688000I0J-150000D01*
G01*
G37*
%TD.AperFunction*%
%TA.AperFunction,SMDPad,CuDef*%
G36*
G01*
X139216000Y-101958000D02*
X139216000Y-102258000D01*
G75*
G02*
X139066000Y-102408000I-150000J0D01*
G01*
X137416000Y-102408000D01*
G75*
G02*
X137266000Y-102258000I0J150000D01*
G01*
X137266000Y-101958000D01*
G75*
G02*
X137416000Y-101808000I150000J0D01*
G01*
X139066000Y-101808000D01*
G75*
G02*
X139216000Y-101958000I0J-150000D01*
G01*
G37*
%TD.AperFunction*%
%TA.AperFunction,SMDPad,CuDef*%
G36*
G01*
X139216000Y-103228000D02*
X139216000Y-103528000D01*
G75*
G02*
X139066000Y-103678000I-150000J0D01*
G01*
X137416000Y-103678000D01*
G75*
G02*
X137266000Y-103528000I0J150000D01*
G01*
X137266000Y-103228000D01*
G75*
G02*
X137416000Y-103078000I150000J0D01*
G01*
X139066000Y-103078000D01*
G75*
G02*
X139216000Y-103228000I0J-150000D01*
G01*
G37*
%TD.AperFunction*%
%TA.AperFunction,SMDPad,CuDef*%
G36*
G01*
X139216000Y-104498000D02*
X139216000Y-104798000D01*
G75*
G02*
X139066000Y-104948000I-150000J0D01*
G01*
X137416000Y-104948000D01*
G75*
G02*
X137266000Y-104798000I0J150000D01*
G01*
X137266000Y-104498000D01*
G75*
G02*
X137416000Y-104348000I150000J0D01*
G01*
X139066000Y-104348000D01*
G75*
G02*
X139216000Y-104498000I0J-150000D01*
G01*
G37*
%TD.AperFunction*%
%TA.AperFunction,SMDPad,CuDef*%
G36*
G01*
X139216000Y-105768000D02*
X139216000Y-106068000D01*
G75*
G02*
X139066000Y-106218000I-150000J0D01*
G01*
X137416000Y-106218000D01*
G75*
G02*
X137266000Y-106068000I0J150000D01*
G01*
X137266000Y-105768000D01*
G75*
G02*
X137416000Y-105618000I150000J0D01*
G01*
X139066000Y-105618000D01*
G75*
G02*
X139216000Y-105768000I0J-150000D01*
G01*
G37*
%TD.AperFunction*%
D15*
X149436000Y-98994000D03*
X149436000Y-98044000D03*
X149436000Y-97094000D03*
X147236000Y-97094000D03*
X147236000Y-98994000D03*
D16*
X158242000Y-99568000D03*
X160782000Y-106426000D03*
X157226000Y-103124000D03*
X139954000Y-105918000D03*
X146304000Y-98044000D03*
X150368000Y-98044000D03*
X150266500Y-100939500D03*
X145272241Y-99737990D03*
X145034000Y-103124000D03*
X152400000Y-105156000D03*
X142748000Y-89916000D03*
X143256000Y-90424000D03*
X143764000Y-89916000D03*
X143764000Y-90932000D03*
X142748000Y-90932000D03*
X143256000Y-91440000D03*
X143256000Y-92456000D03*
X143256000Y-93472000D03*
X143256000Y-94488000D03*
X143256000Y-95504000D03*
X143256000Y-96520000D03*
X142748000Y-96012000D03*
X142748000Y-94996000D03*
X142748000Y-93980000D03*
X142748000Y-92964000D03*
X142748000Y-91948000D03*
X143764000Y-91948000D03*
X143764000Y-92964000D03*
X143764000Y-93980000D03*
X143764000Y-94996000D03*
X143764000Y-96012000D03*
X155956000Y-89916000D03*
X155956000Y-90932000D03*
X155956000Y-91948000D03*
X155956000Y-92964000D03*
X155956000Y-93980000D03*
X155956000Y-94996000D03*
X156972000Y-89916000D03*
X156464000Y-90424000D03*
X156972000Y-90932000D03*
X156464000Y-91440000D03*
X156972000Y-91948000D03*
X156464000Y-92456000D03*
X156972000Y-92964000D03*
X156464000Y-93472000D03*
X156972000Y-93980000D03*
X156464000Y-94488000D03*
X156972000Y-94996000D03*
X156464000Y-95504000D03*
X156972000Y-96012000D03*
X140970000Y-99568000D03*
X141142117Y-102967701D03*
X154432000Y-106426000D03*
X146558000Y-100076000D03*
X148343909Y-100083909D03*
X145542000Y-101558000D03*
X148336000Y-101854000D03*
X143510000Y-87122000D03*
X145034000Y-87122000D03*
X146558000Y-87122000D03*
X148082000Y-87122000D03*
X149606000Y-87122000D03*
X151130000Y-87122000D03*
X152654000Y-87122000D03*
X154178000Y-87122000D03*
X155702000Y-87122000D03*
X143510000Y-82296000D03*
X145034000Y-82296000D03*
X146558000Y-82296000D03*
X148082000Y-82296000D03*
X149606000Y-82296000D03*
X151130000Y-82296000D03*
X152654000Y-82296000D03*
X154178000Y-82296000D03*
X155702000Y-82296000D03*
D17*
X161036000Y-99568000D02*
X158242000Y-99568000D01*
X160766000Y-106410000D02*
X160782000Y-106426000D01*
X160766000Y-105410000D02*
X160766000Y-106410000D01*
X161299500Y-105943500D02*
X160766000Y-105410000D01*
X162306000Y-105943500D02*
X161299500Y-105943500D01*
D18*
X149352000Y-105943500D02*
X150342500Y-106934000D01*
X160197999Y-107010001D02*
X160782000Y-106426000D01*
X152400000Y-106934000D02*
X152476001Y-107010001D01*
X150342500Y-106934000D02*
X152400000Y-106934000D01*
X153416000Y-106934000D02*
X153339999Y-107010001D01*
X153416000Y-105943500D02*
X153416000Y-106934000D01*
X152476001Y-107010001D02*
X153339999Y-107010001D01*
X153339999Y-107010001D02*
X160197999Y-107010001D01*
X157226000Y-104368500D02*
X157226000Y-103124000D01*
X157317500Y-104460000D02*
X157226000Y-104368500D01*
X158766000Y-104460000D02*
X157317500Y-104460000D01*
X162214500Y-104460000D02*
X162306000Y-104368500D01*
X158766000Y-104460000D02*
X162214500Y-104460000D01*
X149352000Y-100939500D02*
X150266500Y-100939500D01*
X151384000Y-100939500D02*
X152298500Y-100939500D01*
X152679500Y-100558500D02*
X152679500Y-99060000D01*
X152298500Y-100939500D02*
X152679500Y-100558500D01*
X161036000Y-98298000D02*
X152908000Y-98298000D01*
X152908000Y-98298000D02*
X152679500Y-98069500D01*
X152679500Y-97028000D02*
X152679500Y-98069500D01*
X152679500Y-98069500D02*
X152679500Y-99060000D01*
X138241000Y-105918000D02*
X139954000Y-105918000D01*
X145288000Y-97256500D02*
X145288000Y-97282000D01*
X145288000Y-97282000D02*
X146050000Y-98044000D01*
X146050000Y-98044000D02*
X146304000Y-98044000D01*
X149436000Y-98044000D02*
X150368000Y-98044000D01*
X150266500Y-100939500D02*
X151384000Y-100939500D01*
X145262500Y-105918000D02*
X145288000Y-105943500D01*
X145288000Y-105943500D02*
X144551500Y-106680000D01*
X140716000Y-106680000D02*
X139954000Y-105918000D01*
X144551500Y-106680000D02*
X140716000Y-106680000D01*
X145450500Y-98994000D02*
X145288000Y-98831500D01*
X147236000Y-98994000D02*
X145450500Y-98994000D01*
X158766000Y-106360000D02*
X158176000Y-106360000D01*
X157759500Y-105943500D02*
X157226000Y-105943500D01*
X158176000Y-106360000D02*
X157759500Y-105943500D01*
X145288000Y-99753749D02*
X145272241Y-99737990D01*
X145288000Y-98831500D02*
X145288000Y-99753749D01*
X157226000Y-105943500D02*
X157226000Y-105664000D01*
X157226000Y-105664000D02*
X156718000Y-105156000D01*
X156718000Y-105156000D02*
X152400000Y-105156000D01*
X145288000Y-103378000D02*
X145034000Y-103124000D01*
X145288000Y-104368500D02*
X145288000Y-103378000D01*
X143191000Y-105918000D02*
X144018000Y-105918000D01*
X144018000Y-105918000D02*
X144526000Y-105410000D01*
X144526000Y-105130500D02*
X145288000Y-104368500D01*
X144526000Y-105410000D02*
X144526000Y-105130500D01*
X147236000Y-97094000D02*
X147762000Y-97094000D01*
X147762000Y-97094000D02*
X148336000Y-96520000D01*
X148336000Y-96520000D02*
X148336000Y-93472000D01*
X147574000Y-92710000D02*
X145710000Y-92710000D01*
X148336000Y-93472000D02*
X147574000Y-92710000D01*
X149436000Y-97094000D02*
X149436000Y-93388000D01*
X150114000Y-92710000D02*
X154010000Y-92710000D01*
X149436000Y-93388000D02*
X150114000Y-92710000D01*
X148778000Y-97094000D02*
X149436000Y-97094000D01*
X148336000Y-97536000D02*
X148778000Y-97094000D01*
X148336000Y-97536000D02*
X148336000Y-99314000D01*
X148336000Y-99314000D02*
X147320000Y-100330000D01*
X147320000Y-100330000D02*
X147320000Y-100939500D01*
X143191000Y-98298000D02*
X141478000Y-98298000D01*
X141478000Y-98298000D02*
X140970000Y-98806000D01*
X140970000Y-98806000D02*
X140970000Y-99568000D01*
X155448000Y-105943500D02*
X154914500Y-105943500D01*
X154914500Y-105943500D02*
X154432000Y-106426000D01*
X151104500Y-97028000D02*
X151104500Y-99060000D01*
X149502000Y-99060000D02*
X149436000Y-98994000D01*
X151104500Y-99060000D02*
X149502000Y-99060000D01*
X138241000Y-102108000D02*
X139700000Y-102108000D01*
X139700000Y-102108000D02*
X140208000Y-101600000D01*
X140208000Y-101600000D02*
X140208000Y-100584000D01*
X140208000Y-100584000D02*
X140462000Y-100330000D01*
X142200308Y-100287990D02*
X145499990Y-100287990D01*
X140462000Y-100330000D02*
X142158298Y-100330000D01*
X142158298Y-100330000D02*
X142200308Y-100287990D01*
X145499990Y-100287990D02*
X146092010Y-100287990D01*
X146092010Y-100287990D02*
X146304000Y-100076000D01*
X146304000Y-100076000D02*
X146558000Y-100076000D01*
X148343909Y-100083909D02*
X149090091Y-100083909D01*
X149436000Y-99738000D02*
X149436000Y-98994000D01*
X149090091Y-100083909D02*
X149436000Y-99738000D01*
X151384000Y-102514500D02*
X149352000Y-102514500D01*
X139954000Y-103378000D02*
X138241000Y-103378000D01*
X140504010Y-102827990D02*
X139954000Y-103378000D01*
X140504010Y-102827990D02*
X141732000Y-101600000D01*
X142200308Y-101557990D02*
X145499990Y-101557990D01*
X141732000Y-101600000D02*
X142158298Y-101600000D01*
X142158298Y-101600000D02*
X142200308Y-101557990D01*
X145499990Y-101557990D02*
X145500000Y-101558000D01*
X145500000Y-101558000D02*
X145542000Y-101558000D01*
X148336000Y-102362000D02*
X148488500Y-102514500D01*
X148336000Y-101854000D02*
X148336000Y-102362000D01*
X149352000Y-102514500D02*
X148488500Y-102514500D01*
X148488500Y-102514500D02*
X147320000Y-102514500D01*
X147320000Y-104368500D02*
X149352000Y-104368500D01*
X151384000Y-104368500D02*
X153416000Y-104368500D01*
X161036000Y-100838000D02*
X156210000Y-100838000D01*
X155448000Y-101600000D02*
X155448000Y-104368500D01*
X156210000Y-100838000D02*
X155448000Y-101600000D01*
X146532500Y-105943500D02*
X147320000Y-105943500D01*
X146304000Y-105715000D02*
X146532500Y-105943500D01*
X146304000Y-103632000D02*
X146304000Y-105715000D01*
X145953990Y-103281990D02*
X146304000Y-103632000D01*
X145953990Y-102519990D02*
X145953990Y-103281990D01*
X145542000Y-102108000D02*
X145953990Y-102519990D01*
X143191000Y-102108000D02*
X145542000Y-102108000D01*
X143191000Y-100838000D02*
X146050000Y-100838000D01*
X146050000Y-100838000D02*
X146304000Y-101092000D01*
X146304000Y-101092000D02*
X146304000Y-103124000D01*
X146304000Y-103124000D02*
X146558000Y-103378000D01*
X146558000Y-103378000D02*
X150114000Y-103378000D01*
X150114000Y-103378000D02*
X150368000Y-103632000D01*
X150368000Y-103632000D02*
X150368000Y-105664000D01*
X150647500Y-105943500D02*
X151384000Y-105943500D01*
X150368000Y-105664000D02*
X150647500Y-105943500D01*
D19*
G36*
X162433000Y-88265000D02*
G01*
X137287000Y-88265000D01*
X137287000Y-81407000D01*
X162433000Y-81407000D01*
X162433000Y-88265000D01*
G37*
X162433000Y-88265000D02*
X137287000Y-88265000D01*
X137287000Y-81407000D01*
X162433000Y-81407000D01*
X162433000Y-88265000D01*
G36*
X162433000Y-96901000D02*
G01*
X157024606Y-96901000D01*
X156045803Y-95922197D01*
X156026557Y-95906403D01*
X156004601Y-95894667D01*
X155980776Y-95887440D01*
X155956000Y-95885000D01*
X153035000Y-95885000D01*
X153035000Y-89535000D01*
X162433000Y-89535000D01*
X162433000Y-96901000D01*
G37*
X162433000Y-96901000D02*
X157024606Y-96901000D01*
X156045803Y-95922197D01*
X156026557Y-95906403D01*
X156004601Y-95894667D01*
X155980776Y-95887440D01*
X155956000Y-95885000D01*
X153035000Y-95885000D01*
X153035000Y-89535000D01*
X162433000Y-89535000D01*
X162433000Y-96901000D01*
G36*
X146939000Y-95915291D02*
G01*
X145809033Y-96227006D01*
X145711408Y-96197392D01*
X145544250Y-96180928D01*
X145031750Y-96180928D01*
X144864592Y-96197392D01*
X144703858Y-96246150D01*
X144555725Y-96325329D01*
X144425885Y-96431885D01*
X144319329Y-96561725D01*
X144271534Y-96651144D01*
X143365804Y-96901000D01*
X137287000Y-96901000D01*
X137287000Y-89535000D01*
X146939000Y-89535000D01*
X146939000Y-95915291D01*
G37*
X146939000Y-95915291D02*
X145809033Y-96227006D01*
X145711408Y-96197392D01*
X145544250Y-96180928D01*
X145031750Y-96180928D01*
X144864592Y-96197392D01*
X144703858Y-96246150D01*
X144555725Y-96325329D01*
X144425885Y-96431885D01*
X144319329Y-96561725D01*
X144271534Y-96651144D01*
X143365804Y-96901000D01*
X137287000Y-96901000D01*
X137287000Y-89535000D01*
X146939000Y-89535000D01*
X146939000Y-95915291D01*
M02*
